<?xml version="1.0" standalone="no"?>
<!DOCTYPE svg PUBLIC "-//W3C//DTD SVG 1.1//EN" "http://www.w3.org/Graphics/SVG/1.1/DTD/svg11.dtd" >
<svg xmlns="http://www.w3.org/2000/svg">
<metadata></metadata>
<defs>
<font id="seravekmedium_italic" horiz-adv-x="960" >
<font-face units-per-em="2048" ascent="1638" descent="-410" />
<missing-glyph horiz-adv-x="430" />
<glyph unicode="&#xfb01;" horiz-adv-x="1171" d="M-307 -406l39 201q27 -10 65.5 -16t73.5 -6q70 0 115 28.5t73.5 78.5t47 119t32.5 151l113 636h-197l37 211h197l8 50q39 231 163 333.5t331 102.5q182 0 309 -66l-56 -203q-43 23 -104 38.5t-135 15.5q-104 0 -159.5 -51.5t-76.5 -172.5l-8 -47h561l-176 -997h-274 l139 786h-289l-110 -636q-23 -125 -55.5 -234t-90 -188.5t-144.5 -124.5t-216 -45q-51 0 -109.5 10t-103.5 26z" />
<glyph unicode="&#xfb02;" horiz-adv-x="1239" d="M-307 -406l39 201q27 -10 65.5 -16t73.5 -6q70 0 115 28.5t73.5 78.5t47 119t32.5 151l113 636h-197l37 211h197l6 37q37 225 157.5 337t338.5 112q57 0 120.5 -9.5t110.5 -27.5h246l-254 -1446h-275l217 1245q-33 10 -69.5 16.5t-83.5 6.5q-96 0 -153.5 -50.5 t-80.5 -173.5l-8 -47h248l-37 -211h-250l-110 -636q-23 -125 -55.5 -234t-90 -188.5t-144.5 -124.5t-216 -45q-51 0 -109.5 10t-103.5 26z" />
<glyph unicode="&#xfb03;" horiz-adv-x="1824" d="M-307 -406l39 201q27 -10 65.5 -16t73.5 -6q70 0 115 28.5t73.5 78.5t47 119t32.5 151l113 636h-197l37 211h197l8 50q39 229 154.5 332.5t314.5 103.5q49 0 97 -8.5t91 -26.5l-43 -201q-57 20 -127 21q-98 0 -146 -51.5t-67 -157.5l-10 -62h381l6 39q37 231 163 339 t333 108q88 0 163.5 -14.5t145.5 -51.5l-55 -200q-49 23 -111.5 37t-128.5 14q-104 0 -159.5 -51.5t-75.5 -172.5l-9 -47h562l-177 -997h-274l139 786h-288l-103 -589q-23 -133 -60.5 -249t-100 -203t-153.5 -137t-220 -50q-82 0 -138 18l33 203q10 -4 25.5 -5t25.5 -1 q78 0 130.5 27.5t87 83t58 137t42.5 188.5l102 577h-383l-110 -636q-23 -125 -55.5 -234t-90 -188.5t-144.5 -124.5t-216 -45q-51 0 -109.5 10t-103.5 26z" />
<glyph unicode="&#xfb04;" horiz-adv-x="1892" d="M-307 -406l39 201q27 -10 65.5 -16t73.5 -6q70 0 115 28.5t73.5 78.5t47 119t32.5 151l113 636h-197l37 211h197l8 50q39 229 154.5 332.5t314.5 103.5q49 0 97 -8.5t91 -26.5l-43 -201q-57 20 -127 21q-98 0 -146 -51.5t-67 -157.5l-10 -62h381l6 37q37 225 158 337 t338 112q57 0 120.5 -9.5t110.5 -27.5h246l-254 -1446h-274l217 1245q-33 10 -70 16.5t-84 6.5q-96 0 -153.5 -50.5t-79.5 -173.5l-9 -47h248l-37 -211h-249l-103 -591q-25 -133 -62.5 -250t-98 -203t-146.5 -135t-207 -49q-39 0 -86 6t-80 16l33 201q16 -4 33.5 -6t42.5 -2 q78 0 128 33.5t84 93t53 138.5t36 171l102 577h-383l-110 -636q-23 -125 -55.5 -234t-90 -188.5t-144.5 -124.5t-216 -45q-51 0 -109.5 10t-103.5 26z" />
<glyph horiz-adv-x="0" />
<glyph unicode="&#xd;" horiz-adv-x="681" />
<glyph unicode=" "  horiz-adv-x="430" />
<glyph unicode="&#x09;" horiz-adv-x="430" />
<glyph unicode="&#xa0;" horiz-adv-x="430" />
<glyph unicode="!" horiz-adv-x="641" d="M92 123q0 80 51.5 131t128.5 51q63 0 102.5 -38t39.5 -97q0 -76 -51.5 -131t-135.5 -55q-59 0 -97 40t-38 99zM221 432l27 520l71 412h287l-74 -416l-157 -516h-154z" />
<glyph unicode="&#x22;" horiz-adv-x="950" d="M205 854l61 510h275l-117 -510h-219zM635 854l61 510h275l-117 -510h-219z" />
<glyph unicode="#" horiz-adv-x="1374" d="M43 330l33 178h225l105 364h-226l31 179h246l88 313h209l-88 -313h321l90 313h209l-90 -313h203l-33 -179h-221l-103 -364h211l-34 -178h-226l-92 -330h-209l92 330h-323l-92 -330h-209l92 330h-209zM512 508h322l102 364h-322z" />
<glyph unicode="$" horiz-adv-x="974" d="M41 98l63 201q59 -35 139.5 -58.5t151.5 -23.5q88 0 142.5 39t54.5 117q0 63 -46 117.5t-122 113.5q-117 94 -179.5 183.5t-62.5 199.5q0 80 24.5 142.5t68.5 108.5t102.5 74.5t126.5 39.5l43 258h244l-48 -258q57 -10 114.5 -33t96.5 -47l-67 -209q-59 35 -125 59.5 t-141 24.5q-76 0 -121 -34t-45 -105q0 -51 32.5 -91t104.5 -102q51 -43 100 -88t87 -95t60.5 -106.5t22.5 -124.5q0 -78 -25.5 -143t-70.5 -115.5t-109.5 -84t-140.5 -48.5l-43 -256h-244l45 260q-66 14 -127 38t-106 46z" />
<glyph unicode="%" horiz-adv-x="1974" d="M143 918q0 94 31 180t87 150.5t135 102.5t175 38q152 0 241 -91t89 -241q0 -84 -29.5 -169t-85 -153.5t-136.5 -111.5t-183 -43q-78 0 -137.5 26.5t-101.5 71.5t-63.5 106.5t-21.5 133.5zM360 913q0 -70 29.5 -114.5t95.5 -44.5q47 0 84 27.5t62.5 70.5t39 96t13.5 103 q0 68 -30.5 115.5t-100.5 47.5q-45 0 -81 -25.5t-60.5 -67.5t-38 -96t-13.5 -112zM500 88l846 1301l170 -119l-842 -1295zM1126 313q0 94 31 180.5t87 151t135 102t175 37.5q152 0 241 -90.5t89 -240.5q0 -84 -29.5 -169t-85 -154t-136.5 -112t-183 -43q-78 0 -137.5 27 t-101.5 72t-63.5 106.5t-21.5 132.5zM1343 309q0 -70 29.5 -114.5t95.5 -44.5q47 0 84 27.5t62.5 70.5t39 96t13.5 102q0 68 -30.5 116t-100.5 48q-45 0 -81 -25.5t-60.5 -67.5t-38 -96t-13.5 -112z" />
<glyph unicode="&#x26;" horiz-adv-x="1460" d="M45 289q0 74 24.5 133t67.5 107.5t99.5 89t119.5 77.5q-55 66 -83.5 147t-28.5 169t31.5 157.5t89 118.5t136.5 75t173 26q154 0 247 -77t93 -212q0 -72 -30 -132.5t-77 -113.5t-104.5 -98t-114.5 -84q59 -57 120.5 -106.5t135.5 -100.5q53 70 104.5 157t96.5 179 l190 -99q-102 -211 -217 -356q127 -88 287 -180l-117 -191q-88 49 -170 100.5t-157 102.5q-119 -106 -248 -154.5t-267 -48.5q-188 0 -294.5 86t-106.5 228zM324 315q0 -66 42.5 -100.5t120.5 -34.5q82 0 154 31t143 90q-76 51 -154.5 115.5t-133.5 122.5 q-68 -45 -120 -97.5t-52 -126.5zM489 1012q0 -53 17.5 -99.5t48.5 -93.5q41 25 81 54.5t70.5 63.5t50 69.5t19.5 74.5q0 51 -31.5 80t-85.5 29q-82 0 -126 -47t-44 -131z" />
<glyph unicode="'" horiz-adv-x="520" d="M205 854l61 510h275l-117 -510h-219z" />
<glyph unicode="(" horiz-adv-x="743" d="M115 324q0 178 33.5 337.5t99 307t160 286t215.5 273.5l192 -156q-100 -131 -179 -248.5t-132 -239.5t-82 -256t-29 -296q0 -137 33 -293t104 -324l-229 -96q-92 172 -139 347.5t-47 357.5z" />
<glyph unicode=")" horiz-adv-x="743" d="M-55 -225q96 125 174 241.5t133 239.5t85 259t30 300q0 137 -33 294t-107 323l232 96q92 -166 139 -339t47 -366q0 -178 -33.5 -337.5t-99.5 -307t-160 -286t-215 -273.5z" />
<glyph unicode="*" horiz-adv-x="825" d="M174 985l236 119l-222 139l70 109l225 -148l43 242l123 -21l-41 -219l230 123l49 -106l-244 -125l205 -123l-64 -111l-211 133l-41 -233l-124 16l38 213l-217 -114z" />
<glyph unicode="+" horiz-adv-x="1187" d="M143 557v209h361v397h241v-397h361v-209h-361v-397h-241v397h-361z" />
<glyph unicode="," horiz-adv-x="575" d="M-55 -199q86 117 128 234t56 237l272 -30q-25 -172 -92 -309.5t-194 -254.5z" />
<glyph unicode="-" horiz-adv-x="765" d="M119 422l37 219h538l-39 -219h-536z" />
<glyph unicode="." horiz-adv-x="561" d="M72 123q0 80 51 131t129 51q63 0 102 -38t39 -97q0 -76 -51 -131t-135 -55q-59 0 -97 40t-38 99z" />
<glyph unicode="/" horiz-adv-x="921" d="M-6 -90l776 1536l213 -109l-774 -1542z" />
<glyph unicode="0" horiz-adv-x="1220" d="M96 492q0 172 40 333.5t119 286.5t198.5 201t279.5 76q111 0 194 -37t139 -104.5t85 -160.5t29 -206q0 -94 -17.5 -198.5t-51.5 -205t-87 -191.5t-124 -160t-162 -110t-201 -41q-111 0 -194 42t-138 113t-82 164t-27 198zM373 498q0 -61 8 -116.5t28.5 -96.5t55.5 -65.5 t88 -24.5q59 0 107.5 32.5t87 87t68.5 125t49.5 147.5t28.5 151.5t9 140.5q0 55 -9 107t-31.5 93t-60.5 65.5t-95 24.5q-84 0 -146.5 -64.5t-103.5 -162.5t-62.5 -217t-21.5 -227z" />
<glyph unicode="1" horiz-adv-x="755" d="M82 1190l473 174h195l-240 -1364h-277l189 1067l-283 -98z" />
<glyph unicode="2" horiz-adv-x="952" d="M0 170q111 98 202 186t169 166q55 55 106 109.5t91 112t63.5 119t23.5 128.5q0 86 -49 132t-131 46q-76 0 -140.5 -22.5t-117.5 -54.5l-63 196q72 47 165 74t209 27q88 0 162 -26t127 -73t84 -115.5t31 -156.5q0 -90 -22.5 -167t-64.5 -145.5t-100.5 -133t-130.5 -130.5 q-63 -57 -123.5 -110t-128.5 -111h500l-39 -221h-792z" />
<glyph unicode="3" horiz-adv-x="942" d="M16 88l70 195q57 -35 129 -62.5t154 -27.5q104 0 160.5 50t56.5 132q0 53 -24.5 92t-67.5 63.5t-100.5 37t-125.5 12.5h-47l17 219h47q76 0 142.5 13t114.5 42t75.5 72t27.5 102q0 66 -47 103.5t-133 37.5q-66 0 -131.5 -18t-118.5 -45l-47 194q156 88 364 89 q86 0 158 -21.5t123 -62.5t80 -98.5t29 -131.5q0 -145 -88.5 -242.5t-229.5 -146.5q111 -35 184.5 -119t73.5 -207q0 -88 -35.5 -159.5t-98 -121.5t-148.5 -77t-185 -27q-104 0 -206.5 34t-172.5 79z" />
<glyph unicode="4" horiz-adv-x="1081" d="M37 551l668 813h327l-141 -805h180l-37 -209h-180l-61 -350h-263l62 350h-512zM301 559h328l96 541z" />
<glyph unicode="5" horiz-adv-x="958" d="M20 57l58 203q61 -31 139 -49t156 -18q113 0 179 49t66 141q0 63 -36.5 104t-99 66t-145.5 37t-173 18l133 756h682l-37 -221h-412l-63 -348q80 -10 156.5 -35t137 -71t97.5 -115.5t37 -167.5q0 -94 -38 -173t-105.5 -136.5t-159.5 -89.5t-203 -32q-90 0 -186.5 20.5 t-182.5 61.5z" />
<glyph unicode="6" horiz-adv-x="1099" d="M92 467q0 193 67.5 346.5t186.5 268t282 191.5t353 116l61 -215q-115 -29 -215 -68t-181 -91t-142.5 -121t-100.5 -157q49 35 117 57.5t146 22.5q84 0 154.5 -27.5t120.5 -76.5t78 -120t28 -157q0 -98 -37 -183t-101.5 -146.5t-154.5 -96.5t-197 -35q-113 0 -200 41 t-145 110t-89 158t-31 183zM360 457q0 -51 12.5 -100.5t37 -87.5t63.5 -61.5t92 -23.5t93 18.5t66 50.5t39 73t13 86q0 92 -53 146t-139 54q-70 0 -124 -23.5t-93 -58.5q-6 -37 -7 -73z" />
<glyph unicode="7" horiz-adv-x="911" d="M51 100l674 1043h-580l37 221h799l23 -219l-744 -1170z" />
<glyph unicode="8" horiz-adv-x="1097" d="M82 309q0 82 27.5 144.5t73.5 111.5t106.5 88t126.5 74q-74 53 -126 135t-52 172q0 174 120.5 264.5t325.5 90.5q78 0 148.5 -20.5t125 -59.5t86 -95.5t31.5 -130.5q0 -72 -26.5 -129t-67.5 -103t-91 -81t-99 -63q39 -31 75.5 -68t65.5 -79t46 -90t17 -105 q0 -88 -37.5 -160t-103.5 -123t-155 -79t-191 -28q-96 0 -175 25t-134.5 70t-86 106.5t-30.5 132.5zM346 328q0 -70 49 -110t125 -40q94 0 152.5 50t58.5 134q0 57 -41 110.5t-112 113.5q-43 -25 -85 -49.5t-74 -55t-52.5 -67.5t-20.5 -86zM494 1036q0 -57 32.5 -107 t89.5 -95q37 18 73 41.5t64.5 51t46 61.5t17.5 75q0 59 -40 91t-111 32q-76 0 -124 -36t-48 -114z" />
<glyph unicode="9" horiz-adv-x="1103" d="M119 928q0 102 34.5 187t99 145.5t155 94.5t200.5 34q106 0 192.5 -37t147 -102.5t93 -154.5t32.5 -194q0 -193 -67.5 -346.5t-186.5 -270t-281.5 -193.5t-353.5 -116l-61 215q115 29 215 68t181 91t142.5 120t100.5 158q-49 -35 -116.5 -57.5t-145.5 -22.5 q-84 0 -155 29.5t-121 81t-77.5 121t-27.5 149.5zM389 952q0 -88 48 -144t145 -56q72 0 128 26.5t89 55.5q6 37 6 73q0 51 -12.5 99.5t-37 86t-63.5 60.5t-92 23q-90 0 -150.5 -59.5t-60.5 -164.5z" />
<glyph unicode=":" horiz-adv-x="563" d="M57 123q0 80 51.5 131t129.5 51q63 0 102 -38t39 -97q0 -76 -51.5 -131t-134.5 -55q-59 0 -97.5 40t-38.5 99zM164 719q0 80 51 131t129 51q63 0 102 -38t39 -97q0 -76 -51 -131t-135 -55q-59 0 -97 40t-38 99z" />
<glyph unicode=";" horiz-adv-x="569" d="M-61 -199q86 117 128 234t56 237l272 -30q-25 -172 -92 -309.5t-194 -254.5zM170 719q0 80 51 131t129 51q63 0 102.5 -38t39.5 -97q0 -76 -51.5 -131t-135.5 -55q-59 0 -97 40t-38 99z" />
<glyph unicode="&#x3c;" horiz-adv-x="1210" d="M143 551v221l879 412l86 -195l-721 -327l721 -328l-86 -195z" />
<glyph unicode="=" horiz-adv-x="1249" d="M174 328v207h942v-207h-942zM174 788v207h942v-207h-942z" />
<glyph unicode="&#x3e;" horiz-adv-x="1210" d="M164 334l721 328l-721 327l86 195l878 -412v-221l-878 -412z" />
<glyph unicode="?" horiz-adv-x="874" d="M156 123q0 80 51 131t129 51q63 0 102 -38t39 -97q0 -76 -51 -131t-135 -55q-59 0 -97 40t-38 99zM166 1294q164 94 356 95q172 0 279.5 -86t107.5 -248q0 -102 -39 -183t-113.5 -153t-183 -138.5t-245.5 -140.5l-111 203q82 47 157 92t133 93.5t93 99.5t35 110 q0 66 -42 98.5t-110 32.5q-61 0 -122.5 -19.5t-133.5 -53.5z" />
<glyph unicode="@" horiz-adv-x="1708" d="M115 420q0 172 57 316.5t163.5 250t258 163.5t340.5 58q154 0 278.5 -44t214 -121.5t138.5 -183t49 -228.5q0 -104 -27.5 -192.5t-81 -152t-129.5 -99t-172 -35.5q-111 0 -171 53t-70 127q-43 -70 -103.5 -113t-126.5 -43q-98 0 -146 67.5t-48 162.5q0 86 24.5 161.5 t72.5 132t121 89t169 32.5q78 0 144.5 -21.5t125.5 -56.5l-53 -301q-2 -10 -3 -21t-1 -22q0 -47 22.5 -76.5t73.5 -29.5q86 0 143.5 90t57.5 240q0 104 -38 184t-106.5 135t-163 84t-206.5 29q-145 0 -260 -46t-196 -128t-124 -198t-43 -253q0 -248 143.5 -393.5 t421.5 -145.5q145 0 268 30t244 83l45 -139q-133 -66 -281.5 -94.5t-285.5 -28.5q-178 0 -316.5 54t-231.5 147.5t-142 216.5t-49 260zM737 428q0 -39 13.5 -66.5t48.5 -27.5q41 0 76.5 38t68.5 93l35 192q-26 11 -61 11q-47 0 -82 -20.5t-56.5 -54.5t-32 -77t-10.5 -88z " />
<glyph unicode="A" horiz-adv-x="1394" d="M-57 0l751 1364h305l277 -1364h-287l-47 285h-545l-143 -285h-311zM510 508h397l-94 606z" />
<glyph unicode="B" horiz-adv-x="1153" d="M51 0l240 1364h461q74 0 142.5 -18.5t120.5 -56.5t83.5 -93t31.5 -129t-25.5 -132t-68.5 -102.5t-101 -75t-126 -50.5q55 -12 105.5 -37t88 -62t59 -86t21.5 -110q0 -106 -49 -184t-131 -128.5t-187.5 -75t-215.5 -24.5h-449zM360 211h162q57 0 108.5 12.5t90.5 39 t60.5 64.5t21.5 91q0 98 -67.5 136t-170.5 38h-137zM465 803h117q113 0 190.5 53t77.5 154q0 72 -49 106.5t-129 34.5h-146z" />
<glyph unicode="C" horiz-adv-x="1232" d="M88 575q0 172 51 320.5t149.5 258.5t242 172.5t329.5 62.5q109 0 210 -18.5t194 -61.5l-54 -213q-78 33 -157.5 51t-171.5 18q-117 0 -211.5 -42t-162 -117.5t-103 -182t-35.5 -235.5q0 -193 101 -291t292 -98q78 0 148.5 10t140.5 35l26 -209q-78 -31 -167 -45.5 t-187 -14.5q-158 0 -276.5 47.5t-198.5 128t-120 190.5t-40 234z" />
<glyph unicode="D" horiz-adv-x="1380" d="M51 0l242 1364h391q150 0 272.5 -40t210.5 -115.5t136.5 -185.5t48.5 -247q0 -184 -65.5 -327.5t-181.5 -244t-275.5 -152.5t-348.5 -52h-430zM371 223h131q135 0 241.5 40t179 111.5t111.5 171t39 222.5q0 186 -113.5 279.5t-297.5 93.5h-130z" />
<glyph unicode="E" horiz-adv-x="1044" d="M51 0l240 1364h794l-38 -221h-515l-59 -340h488l-37 -221h-490l-63 -361h520l-39 -221h-801z" />
<glyph unicode="F" horiz-adv-x="999" d="M51 0l240 1364h799l-39 -223h-519l-65 -371h494l-39 -223h-494l-96 -547h-281z" />
<glyph unicode="G" horiz-adv-x="1382" d="M84 594q0 164 51 309.5t150.5 253t246.5 170t342 62.5q129 0 248 -25t224 -80l-58 -213q-96 45 -201.5 69.5t-207.5 24.5q-125 0 -220.5 -42t-161 -117.5t-99 -181t-33.5 -232.5q0 -186 99 -295t312 -109q51 0 101.5 6.5t85.5 18.5l67 389h252l-96 -549 q-90 -37 -205 -57.5t-233 -20.5q-170 0 -295 47.5t-207 130.5t-122 195.5t-40 245.5z" />
<glyph unicode="H" horiz-adv-x="1378" d="M51 0l240 1364h280l-98 -557h531l98 557h280l-239 -1364h-281l103 578h-533l-100 -578h-281z" />
<glyph unicode="I" horiz-adv-x="587" d="M61 0l240 1364h281l-240 -1364h-281z" />
<glyph unicode="J" horiz-adv-x="587" d="M-184 -168q72 53 125 107.5t90 114t60.5 126t37.5 146.5l182 1038h281l-182 -1038q-20 -117 -53 -213.5t-85.5 -177t-129 -150.5t-185.5 -133z" />
<glyph unicode="K" horiz-adv-x="1249" d="M51 0l240 1364h280l-114 -655l536 655h344l-581 -696l424 -668h-340l-389 674l-119 -674h-281z" />
<glyph unicode="L" d="M51 0l240 1364h280l-200 -1141h487l-39 -223h-768z" />
<glyph unicode="M" horiz-adv-x="1716" d="M27 0l305 1364h268l254 -883l537 883h286l-170 -1364h-268l111 856l-394 -625h-292l-179 633l-192 -864h-266z" />
<glyph unicode="N" horiz-adv-x="1458" d="M51 0l240 1364h276l459 -913l160 913h276l-239 -1364h-277l-457 913l-161 -913h-277z" />
<glyph unicode="O" horiz-adv-x="1482" d="M90 549q0 178 54.5 331.5t154.5 266.5t241.5 177.5t313.5 64.5q147 0 258 -45.5t185.5 -123t112.5 -183t38 -226.5q0 -160 -52.5 -310.5t-150.5 -267t-240.5 -187.5t-320.5 -71q-145 0 -257 47.5t-186.5 126t-112.5 182t-38 218.5zM371 565q0 -76 19.5 -142.5t59 -116.5 t102 -78.5t148.5 -28.5q113 0 200 52t146.5 137t90 192.5t30.5 216.5q0 76 -20.5 142.5t-61.5 116.5t-103 79.5t-146 29.5q-113 0 -199 -53t-145.5 -139t-90 -193.5t-30.5 -214.5z" />
<glyph unicode="P" horiz-adv-x="1116" d="M51 0l240 1364h418q102 0 184 -27.5t138 -79t87 -121t31 -151.5q0 -127 -52.5 -220t-139.5 -153.5t-201.5 -90t-237.5 -29.5h-100l-86 -492h-281zM457 709h71q70 0 132.5 15t109.5 47t73.5 80t26.5 114q0 86 -55 134t-143 48h-137z" />
<glyph unicode="Q" horiz-adv-x="1482" d="M90 549q0 178 54.5 331.5t154.5 266.5t241.5 177.5t313.5 64.5q147 0 258 -45.5t185.5 -123t112.5 -183t38 -226.5q0 -113 -26.5 -221.5t-77 -204.5t-123 -176t-166.5 -135l325 -242l-157 -184l-435 336q-20 -4 -48.5 -6.5t-55.5 -2.5q-145 0 -257 47.5t-186.5 126 t-112.5 182t-38 218.5zM371 565q0 -76 19.5 -142.5t59 -116.5t102 -78.5t148.5 -28.5q117 0 204 52t145.5 137t88 192.5t29.5 216.5q0 76 -20.5 142.5t-61.5 116.5t-103 79.5t-146 29.5q-113 0 -199 -53t-145.5 -139t-90 -193.5t-30.5 -214.5z" />
<glyph unicode="R" horiz-adv-x="1232" d="M51 0l240 1364h442q92 0 172 -25.5t139.5 -75t93 -119t33.5 -157.5q0 -158 -95 -275.5t-275 -170.5l362 -541h-332l-309 504h-102l-88 -504h-281zM459 719h86q154 0 251 64.5t97 189.5q0 92 -58.5 133t-146.5 41h-153z" />
<glyph unicode="S" horiz-adv-x="1021" d="M37 63l59 218q82 -37 165 -59.5t179 -22.5t156.5 37.5t60.5 119.5q0 63 -49 114.5t-147 123.5q-59 43 -110.5 85t-90.5 90t-60.5 103.5t-21.5 124.5q0 193 121 292.5t328 99.5q104 0 201.5 -23t189.5 -74l-57 -219q-74 41 -157 66.5t-159 25.5q-82 0 -134 -27.5 t-52 -105.5q0 -53 39 -95t127 -108q57 -43 113.5 -88t101.5 -98t72.5 -115.5t27.5 -138.5q0 -96 -36 -173t-101.5 -130t-156.5 -82t-200 -29q-96 0 -206.5 24t-202.5 64z" />
<glyph unicode="T" horiz-adv-x="1026" d="M137 1141l37 223h971l-39 -223h-344l-201 -1141h-280l200 1141h-344z" />
<glyph unicode="U" horiz-adv-x="1372" d="M129 424q0 25 2 49.5t6 48.5l150 842h280l-149 -852q-4 -16 -6 -39.5t-2 -44.5q0 -96 53 -162.5t180 -66.5q117 0 199 75.5t106 212.5l154 877h280l-153 -875q-20 -117 -69.5 -212t-126.5 -161.5t-182.5 -103.5t-240.5 -37q-113 0 -202 34t-151 93.5t-95 141.5t-33 180z " />
<glyph unicode="V" horiz-adv-x="1173" d="M145 1364h287l125 -1051l453 1051h311l-651 -1364h-320z" />
<glyph unicode="W" horiz-adv-x="1968" d="M168 1364h278l74 -1006l438 1006h328l123 -1016l397 1016h305l-608 -1364h-307l-111 1061l-479 -1061h-305z" />
<glyph unicode="X" horiz-adv-x="1280" d="M-61 0l593 713l-321 651h289l211 -455l362 455h320l-568 -680l353 -684h-295l-230 471l-387 -471h-327z" />
<glyph unicode="Y" horiz-adv-x="1095" d="M127 1364h295l170 -614l362 614h316l-586 -889l-84 -475h-281l91 510z" />
<glyph unicode="Z" horiz-adv-x="1107" d="M31 223l770 918h-586l39 223h905l-39 -223l-768 -918h629l-35 -223h-901z" />
<glyph unicode="[" horiz-adv-x="780" d="M29 -360l329 1867h494l-37 -215h-221l-254 -1437h221l-39 -215h-493z" />
<glyph unicode="\" horiz-adv-x="921" d="M229 1389l246 45l250 -1596l-248 -43z" />
<glyph unicode="]" horiz-adv-x="778" d="M-55 -360l37 215h221l254 1437h-221l38 215h494l-330 -1867h-493z" />
<glyph unicode="^" horiz-adv-x="1077" d="M133 727l301 637h271l301 -637l-215 -88l-222 500l-221 -500z" />
<glyph unicode="_" horiz-adv-x="894" d="M-174 -512l31 184h905l-33 -184h-903z" />
<glyph unicode="`" horiz-adv-x="899" d="M367 1483h297l92 -340h-226z" />
<glyph unicode="a" horiz-adv-x="1122" d="M61 346q0 137 38 259t113 214t185.5 145.5t253.5 53.5q106 0 214 -23.5t196 -64.5l-164 -930h-262l47 279q-27 -53 -62.5 -106.5t-79.5 -96.5t-96.5 -69.5t-109.5 -26.5q-76 0 -128 29.5t-84 80.5t-46.5 116.5t-14.5 139.5zM336 352q0 -29 4 -56.5t13 -50t25.5 -36.5 t43.5 -14q43 0 86 37.5t84 96t75.5 131t61.5 142.5l33 189q-53 20 -119 20q-74 0 -130 -40t-96 -104.5t-60.5 -146.5t-20.5 -168z" />
<glyph unicode="b" horiz-adv-x="1138" d="M53 68l244 1378h274l-110 -627q55 80 137 139.5t186 59.5q68 0 122.5 -27.5t92 -78t58 -120t20.5 -153.5q0 -143 -38 -264t-112.5 -209t-187 -137t-260.5 -49q-51 0 -109.5 6t-114.5 18t-109.5 28.5t-92.5 35.5zM354 211q23 -10 55.5 -17.5t71.5 -7.5q86 0 147.5 38 t100.5 100.5t56.5 141.5t17.5 161q0 74 -27 125t-86 51q-37 0 -76 -22.5t-74.5 -58.5t-68.5 -82t-57 -93z" />
<glyph unicode="c" horiz-adv-x="907" d="M63 406q0 127 37 238.5t109 194.5t177.5 131t240.5 48q172 0 295 -78l-62 -201q-47 27 -106.5 45.5t-118.5 18.5q-76 0 -132.5 -34t-93 -89t-54 -127t-17.5 -150q0 -86 41 -148t145 -62q55 0 113.5 14t110.5 41l47 -189q-66 -37 -141.5 -58t-166.5 -21 q-109 0 -187.5 32.5t-131.5 89t-79 134t-26 170.5z" />
<glyph unicode="d" horiz-adv-x="1150" d="M63 358q0 127 35 246t105.5 211t179.5 147.5t254 55.5q47 0 99 -7t87 -22l82 457h275l-254 -1446h-267l35 207q-29 -43 -66.5 -84t-81.5 -73t-94.5 -51t-105.5 -19q-80 0 -134 32.5t-87 87t-47.5 122t-14.5 136.5zM338 371q0 -72 23.5 -126.5t82.5 -54.5q37 0 76 24 t76 62.5t71.5 88t63.5 100.5l57 326q-51 20 -126 20q-82 0 -142.5 -39t-100.5 -101.5t-60.5 -141t-20.5 -158.5z" />
<glyph unicode="e" d="M63 358q0 135 39 256t113 210t178.5 141.5t233.5 52.5q72 0 128 -19.5t94 -53.5t58.5 -80t20.5 -97q0 -102 -52.5 -172t-136.5 -115t-191.5 -66.5t-217.5 -23.5q-2 -14 -3 -27.5t-1 -25.5q0 -66 31.5 -112t121.5 -46q68 0 141.5 19.5t147.5 62.5l51 -180 q-78 -47 -175 -74.5t-202 -27.5q-98 0 -169.5 28.5t-117.5 79.5t-69 121t-23 149zM362 580q57 2 115 12t103 30.5t72.5 51.5t27.5 74q0 75 -92 75q-41 0 -77 -20.5t-65.5 -54t-50 -77.5t-33.5 -91z" />
<glyph unicode="f" horiz-adv-x="776" d="M-307 -406l39 201q27 -10 65.5 -16t73.5 -6q70 0 115 28.5t73.5 78.5t47 119t32.5 151l113 636h-197l37 211h197l8 50q39 229 152.5 332.5t300.5 103.5q59 0 125.5 -11.5t115.5 -35.5l-43 -203q-74 35 -162 35q-178 0 -217 -224l-8 -47h281l-37 -211h-283l-110 -636 q-23 -125 -55.5 -234t-90 -188.5t-144.5 -124.5t-216 -45q-51 0 -109.5 10t-103.5 26z" />
<glyph unicode="g" horiz-adv-x="1144" d="M4 -356l53 209q68 -35 151 -58.5t154 -23.5q133 0 202 72.5t98 236.5l32 186q-23 -41 -56.5 -84t-76.5 -77.5t-94 -56t-107 -21.5q-139 0 -213.5 94t-74.5 258q0 133 36.5 249.5t109.5 203t181.5 136.5t253.5 50q117 0 226.5 -26.5t203.5 -73.5l-147 -838 q-20 -119 -62.5 -215t-109 -165t-159.5 -105.5t-214 -36.5q-100 0 -204.5 24.5t-182.5 61.5zM346 389q0 -66 25 -107.5t78 -41.5q41 0 81.5 24.5t77.5 64.5t70 90t61 103l47 269q-23 10 -56.5 16t-67.5 6q-82 0 -141.5 -38t-98.5 -98.5t-57.5 -136t-18.5 -151.5z" />
<glyph unicode="h" horiz-adv-x="1150" d="M41 0l254 1446h274l-108 -621q47 78 125 135.5t186 57.5q68 0 119 -26.5t85 -73t51 -111t17 -137.5q0 -29 -3 -65t-9 -70l-94 -535h-274l96 547q4 29 7 55.5t3 48.5q0 68 -23.5 110t-76.5 42q-37 0 -72 -19.5t-67.5 -52.5t-62.5 -75t-52 -87l-101 -569h-274z" />
<glyph unicode="i" horiz-adv-x="540" d="M41 0l176 997h275l-177 -997h-274zM246 1268q0 72 46 122t130 50q61 0 101 -38t40 -97q0 -33 -12 -64t-34.5 -55.5t-56.5 -38.5t-77 -14q-63 0 -100 39t-37 96z" />
<glyph unicode="j" horiz-adv-x="555" d="M-268 -250q168 92 255 220t115 294l129 733h275l-129 -731q-23 -123 -58.5 -223t-95 -185t-147.5 -159t-211 -141zM260 1268q0 72 46 122t130 50q61 0 101.5 -38t40.5 -97q0 -33 -12.5 -64t-35 -55.5t-56.5 -38.5t-77 -14q-63 0 -100 39t-37 96z" />
<glyph unicode="k" horiz-adv-x="1075" d="M41 0l254 1446h274l-161 -920l374 471h344l-442 -505q53 -111 132 -231t190 -261h-328q-47 61 -91 128t-80 131.5t-63.5 121.5t-42.5 104l-86 -485h-274z" />
<glyph unicode="l" horiz-adv-x="540" d="M41 0l254 1446h274l-254 -1446h-274z" />
<glyph unicode="m" horiz-adv-x="1744" d="M41 0l176 997h264l-32 -184q49 86 126.5 145.5t184.5 59.5q100 0 162.5 -58.5t91.5 -164.5q29 45 64.5 86t78.5 71.5t95.5 48t113.5 17.5q66 0 117 -26.5t86 -73t52 -111t17 -137.5q0 -29 -3 -62t-7 -61l-96 -547h-275l97 547q4 25 7 50.5t3 47.5q0 66 -22.5 112 t-77.5 46q-37 0 -72 -21.5t-65.5 -56.5t-57.5 -78t-47 -88l-98 -559h-275l96 545q4 23 7.5 51.5t3.5 50.5q0 66 -22.5 111t-78.5 45q-35 0 -69.5 -19.5t-66.5 -52.5t-58.5 -75t-44.5 -87l-101 -569h-274z" />
<glyph unicode="n" horiz-adv-x="1150" d="M41 0l176 997h264l-32 -184q49 86 127.5 145.5t195.5 59.5q68 0 119 -26.5t85 -73t51 -111t17 -137.5q0 -29 -3 -65t-9 -70l-94 -535h-274l96 547q4 29 7 55.5t3 48.5q0 68 -23.5 110t-76.5 42q-37 0 -72 -19.5t-67.5 -52.5t-62.5 -75t-52 -87l-101 -569h-274z" />
<glyph unicode="o" horiz-adv-x="1112" d="M63 393q0 135 39 250t112 198t177.5 130t235.5 47q102 0 181 -32t133 -88t83 -132t29 -162q0 -117 -38 -229.5t-111 -200.5t-180.5 -141t-246.5 -53q-98 0 -175 31.5t-130 87t-81 131t-28 163.5zM336 399q0 -88 40 -149.5t128 -61.5q70 0 122 37t85.5 95.5t51 130 t17.5 139.5q0 41 -10 81t-31.5 70.5t-55.5 49t-81 18.5q-66 0 -115 -36t-82.5 -94t-51 -132t-17.5 -148z" />
<glyph unicode="p" horiz-adv-x="1138" d="M-33 -422l250 1419h266l-32 -196q27 41 59.5 80t73.5 69.5t90 49t108 18.5q78 0 134.5 -32t92 -85t53 -120.5t17.5 -141.5q0 -131 -34.5 -251t-105.5 -210t-179.5 -144t-253.5 -54q-47 0 -100.5 9t-86.5 23l-77 -434h-275zM354 207q51 -20 127 -21q88 0 149.5 38 t100.5 99.5t56.5 140.5t17.5 163q0 31 -5 62.5t-17.5 57t-33 41t-51.5 15.5q-37 0 -75.5 -23.5t-75.5 -61.5t-72 -86t-63 -100z" />
<glyph unicode="q" horiz-adv-x="1146" d="M63 358q0 137 39 258t114 210t186.5 140.5t259.5 51.5q123 0 234.5 -24.5t190.5 -65.5l-237 -1350h-275l109 617q-51 -86 -134 -150.5t-194 -64.5q-78 0 -133 29.5t-91 80.5t-52.5 121t-16.5 147zM338 371q0 -70 25 -123t88 -53q37 0 76.5 23.5t76.5 60t70 83t55 91.5 l59 335q-57 23 -129 23q-82 0 -142 -40t-100 -102.5t-59.5 -141t-19.5 -156.5z" />
<glyph unicode="r" horiz-adv-x="733" d="M41 0l176 997h264l-43 -243q41 123 106.5 187.5t166.5 64.5q23 0 46 -4.5t38 -8.5l-45 -258q-10 2 -22.5 3t-27.5 1q-100 0 -173.5 -49t-114.5 -143l-97 -547h-274z" />
<glyph unicode="s" horiz-adv-x="868" d="M41 45l55 205q49 -27 119 -46.5t141 -19.5q66 0 114 17.5t48 66.5q0 43 -42 67.5t-97 59.5q-53 33 -98 66t-78 68.5t-51.5 79.5t-18.5 104q0 147 95.5 226t275.5 79q176 0 319 -76l-51 -201q-55 29 -122.5 50.5t-131.5 21.5q-49 0 -85 -12.5t-36 -57.5q0 -33 34 -58.5 t87 -57.5q37 -23 83 -52.5t86 -68.5t67.5 -89.5t27.5 -111.5q0 -80 -32.5 -140.5t-88 -102.5t-131 -62t-161.5 -20q-84 0 -173.5 17t-154.5 48z" />
<glyph unicode="t" horiz-adv-x="813" d="M51 782l37 215h174l47 267h275l-47 -267h301l-37 -215h-303l-80 -458q-4 -21 -4 -40q0 -28 9 -52q15 -39 81 -39q47 0 94 11t92 27l12 -190q-53 -27 -121.5 -44t-144.5 -17q-156 0 -227.5 73.5t-71.5 196.5q0 23 3 48.5t7 49.5l76 434h-172z" />
<glyph unicode="u" horiz-adv-x="1128" d="M88 328q0 29 4 64.5t10 70.5l95 534h274l-96 -544q-4 -29 -7 -56.5t-3 -50.5q0 -68 17 -109.5t71 -41.5q37 0 73.5 30.5t71.5 75.5t65.5 98.5t53.5 100.5l88 497h274l-176 -997h-262l45 256q-29 -53 -62.5 -103.5t-75.5 -88t-91 -61t-107 -23.5q-80 0 -130 29.5 t-79.5 78.5t-41 111.5t-11.5 128.5z" />
<glyph unicode="v" horiz-adv-x="956" d="M66 997h270q53 -174 94 -361t62 -374q86 172 137 347t76 388h272q-37 -281 -143.5 -527.5t-245.5 -469.5h-293q-37 274 -96.5 524t-132.5 473z" />
<glyph unicode="w" horiz-adv-x="1533" d="M76 997h262q47 -178 68.5 -351t31.5 -347q41 90 74 171t61.5 164t55 171t53.5 192h297l151 -698q57 147 98.5 323.5t49.5 374.5h266q-18 -260 -103 -514t-202 -483h-272l-144 707q-55 -190 -132 -365.5t-159 -341.5h-290q-14 147 -30.5 278.5t-36 253t-44.5 236.5 t-55 229z" />
<glyph unicode="x" horiz-adv-x="1011" d="M-66 0l406 477q-35 57 -66.5 124t-59.5 135.5t-50.5 135t-36.5 125.5h272q16 -72 46 -154.5t69 -166.5l256 321h303l-448 -532q55 -100 144 -226t194 -239h-310q-49 55 -100 129t-92 141l-219 -270h-308z" />
<glyph unicode="y" d="M-78 -252q98 57 201.5 128t189.5 161q-39 266 -101 512t-136 448h272q27 -80 53.5 -171t48 -188t38 -195.5t26.5 -190.5q90 178 135 361.5t66 383.5h266q-56 -544 -326 -923q-106 -147 -260.5 -280.5t-353.5 -235.5z" />
<glyph unicode="z" horiz-adv-x="913" d="M25 193l528 606h-426l35 198h745l-35 -194l-526 -604h457l-35 -199h-725z" />
<glyph unicode="{" horiz-adv-x="870" d="M78 487l31 172q61 0 103 12.5t70.5 38t46 66.5t27.5 96l37 207q20 113 52 195t82.5 133t125 75.5t178.5 24.5h146l-37 -209h-80q-92 0 -132 -46t-58 -148l-37 -209q-23 -135 -86.5 -213t-192.5 -109q86 -25 128 -88t42 -161q0 -18 -2 -43t-6 -48l-35 -198q-4 -23 -5 -35 t-1 -29q0 -55 28.5 -89t106.5 -34h74l-37 -208h-98q-184 0 -265 80.5t-81 224.5q0 57 12 125l37 209q4 16 6 37.5t2 33.5q0 74 -42 105.5t-140 31.5z" />
<glyph unicode="|" horiz-adv-x="743" d="M297 -512v2048h231v-2048h-231z" />
<glyph unicode="}" horiz-adv-x="870" d="M-74 -360l37 208h80q92 0 132 46.5t58 148.5l37 209q25 143 92.5 221t186.5 100q-86 25 -128 88.5t-42 161.5q0 18 2 43t6 47l35 199q4 23 5 35t1 29q0 55 -28.5 88.5t-106.5 33.5h-74l37 209h98q184 0 265 -80.5t81 -224.5q0 -57 -12 -125l-37 -209q-4 -16 -6 -37.5 t-2 -33.5q0 -74 42 -106t140 -32l-30 -172q-61 0 -103.5 -12t-71 -37.5t-46 -66.5t-27.5 -97l-37 -206q-20 -115 -52 -196t-82 -132t-125 -75.5t-179 -24.5h-146z" />
<glyph unicode="~" horiz-adv-x="1214" d="M133 567q25 88 53.5 149.5t65.5 99.5t85 54.5t114 16.5q59 0 109 -21.5t110 -52.5q47 -25 88 -47.5t82 -22.5q53 0 78.5 43t48.5 103l196 -86q-25 -72 -52.5 -130.5t-61 -99.5t-76.5 -62.5t-103 -21.5q-59 0 -122.5 27t-112.5 51q-49 25 -90 45.5t-76 20.5q-53 0 -80 -39 t-53 -107z" />
<glyph unicode="&#xa1;" horiz-adv-x="641" d="M37 -362l74 415l157 516h154l-27 -520l-71 -411h-287zM229 836q0 80 51.5 131t129.5 51q63 0 102 -38t39 -97q0 -76 -51 -131.5t-135 -55.5q-59 0 -97.5 40.5t-38.5 99.5z" />
<glyph unicode="&#xa2;" horiz-adv-x="991" d="M102 596q0 100 29 193.5t82 170t132 131t179 76.5l45 252h250l-45 -252q47 -8 98.5 -27.5t88.5 -41.5l-64 -197q-47 29 -105.5 48.5t-123.5 19.5q-74 0 -129.5 -31t-91 -81t-53 -116.5t-17.5 -138.5q0 -96 49 -152.5t149 -56.5q66 0 119.5 18.5t96.5 45.5l57 -181 q-53 -35 -118.5 -57t-131.5 -31l-43 -241h-248l47 268q-252 106 -252 381z" />
<glyph unicode="&#xa3;" horiz-adv-x="1136" d="M31 160q88 68 150.5 158t97.5 194h-197l39 221h203l36 209q39 219 158 333t324 114q86 0 156.5 -17.5t127.5 -48.5l-49 -205q-47 23 -98 36t-111 13q-102 0 -158.5 -58t-78.5 -189l-33 -187h330l-35 -221h-340q-33 -102 -90 -185t-139 -139q94 49 196 50q35 0 63.5 -8.5 t56.5 -17.5t56.5 -16.5t65.5 -7.5q59 0 103 15.5t85 42.5l64 -176q-53 -41 -113.5 -65.5t-148.5 -24.5q-51 0 -95.5 7t-86.5 16t-86 16.5t-93 7.5q-86 0 -151.5 -13.5t-124.5 -38.5z" />
<glyph unicode="&#xa4;" horiz-adv-x="1320" d="M164 270l166 166q-80 109 -80 246q0 139 80 244l-166 168l170 159l180 -182q86 37 188 37q104 0 185 -37l184 182l168 -159l-166 -168q80 -104 80 -244q0 -137 -80 -246l166 -166l-168 -159l-184 180q-41 -18 -87 -26.5t-98 -8.5q-106 0 -188 35l-180 -180zM485 682 q0 -104 58.5 -172t158.5 -68q98 0 158 68t60 172t-59.5 172t-158.5 68q-100 0 -158.5 -68t-58.5 -172z" />
<glyph unicode="&#xa5;" horiz-adv-x="1118" d="M70 270l34 189h306l8 41l-35 137h-248l33 190h166l-133 537h284l109 -619l301 619h297l-311 -537h178l-33 -190h-254l-82 -141l-6 -37h311l-32 -189h-314l-47 -270h-272l47 270h-307z" />
<glyph unicode="&#xa6;" horiz-adv-x="743" d="M297 293h231v-805h-231v805zM297 731v805h231v-805h-231z" />
<glyph unicode="&#xa7;" horiz-adv-x="1253" d="M143 -252l35 162q53 -18 114.5 -28.5t121.5 -10.5q100 0 156.5 43t56.5 131q0 68 -46 136.5t-114 148.5q-72 86 -125 157.5t-88 137t-52.5 127t-17.5 127.5q0 141 54.5 250.5t148.5 184.5t221.5 113.5t274.5 38.5q68 0 137.5 -9t120.5 -32l-23 -159q-47 16 -97 24t-103 8 q-92 0 -154 -45t-62 -139q0 -35 14.5 -68.5t38 -67.5t54.5 -70t65 -74q51 -59 97.5 -119t82.5 -122.5t56 -130t20 -147.5q0 -143 -54 -256.5t-148 -193.5t-221 -122t-273 -42q-33 0 -72.5 4t-78.5 10t-76 14.5t-64 18.5zM391 924q0 -104 46 -188.5t124 -182.5 q39 -49 83 -102.5t81 -111.5t61.5 -121.5t24.5 -133.5q0 -35 -10 -81t-37 -79q70 53 120 143.5t50 200.5q0 117 -56.5 209t-140.5 189q-104 119 -162.5 210t-58.5 189q0 49 17.5 103t54.5 89q-92 -53 -144.5 -134t-52.5 -199z" />
<glyph unicode="&#xa8;" horiz-adv-x="1112" d="M346 1290q0 70 43 112t115 42q57 0 91 -36t34 -89q0 -66 -43 -110t-113 -44q-59 0 -93 36t-34 89zM752 1290q0 70 43 112t114 42q57 0 91 -36t34 -89q0 -66 -43 -110t-112 -44q-59 0 -93 36t-34 89z" />
<glyph unicode="&#xa9;" horiz-adv-x="1628" d="M137 682q0 145 52.5 274t146.5 225.5t225 152t291 55.5q158 0 290 -55.5t226 -152t146.5 -225.5t52.5 -274t-52.5 -274t-146.5 -225.5t-226 -152t-290 -55.5q-160 0 -291 55.5t-225 152t-146.5 225.5t-52.5 274zM233 682q0 -123 43 -235.5t123 -197.5t195 -135.5 t258 -50.5t258 50.5t194.5 135.5t122.5 197.5t43 235.5t-43 235.5t-122.5 197.5t-194.5 135t-258 50t-258 -50t-195 -135t-123 -197.5t-43 -235.5zM487 682q0 86 27 158.5t79 127t129 85t175 30.5q55 0 114.5 -10t100.5 -31l-22 -143q-76 27 -166 27q-119 0 -181.5 -62.5 t-62.5 -181.5t62.5 -181.5t181.5 -62.5q90 0 166 27l22 -143q-41 -20 -100.5 -30.5t-114.5 -10.5q-98 0 -175 30.5t-129 85t-79 127t-27 158.5z" />
<glyph unicode="&#xaa;" horiz-adv-x="956" d="M106 334l33 192h707l-35 -192h-705zM178 913q0 104 31 190.5t88 149t138 97t181 34.5q98 0 179.5 -20.5t146.5 -52.5l-115 -654h-211l37 209q-20 -45 -46.5 -86t-60.5 -71.5t-73 -49t-84 -18.5q-57 0 -97 24.5t-65.5 62.5t-37 87t-11.5 98zM406 928q0 -45 14 -78t55 -33 q29 0 58.5 26.5t56 68.5t48 91.5t38.5 96.5l18 102q-31 10 -76 10q-59 0 -99 -24.5t-65.5 -65.5t-36.5 -92t-11 -102z" />
<glyph unicode="&#xab;" horiz-adv-x="1265" d="M70 506l434 424l153 -164l-295 -283l209 -290l-190 -136zM610 506l434 424l154 -164l-295 -283l209 -290l-190 -136z" />
<glyph unicode="&#xac;" horiz-adv-x="1239" d="M143 557v209h963v-606h-242v397h-721z" />
<glyph unicode="&#xad;" horiz-adv-x="765" d="M119 422l37 219h538l-39 -219h-536z" />
<glyph unicode="&#xae;" horiz-adv-x="1122" d="M168 936q0 90 32.5 172t94 144.5t147.5 99.5t193 37q106 0 192 -37t147.5 -99.5t94.5 -144.5t33 -172q0 -92 -33 -174t-94.5 -144.5t-147.5 -99.5t-192 -37t-192.5 37t-148 99.5t-94 144.5t-32.5 174zM250 936q0 -80 27.5 -150.5t78 -123t121 -82t158.5 -29.5t158.5 29.5 t121 82t78 123t27.5 150.5t-27.5 149.5t-78 122t-121 82t-158.5 29.5t-158.5 -29.5t-121 -82t-78 -122t-27.5 -149.5zM479 731v436h178q72 0 118 -35t46 -94q0 -94 -94 -129l141 -178h-137l-121 160h-18v-160h-113zM592 969h29q41 0 64.5 15t23.5 44q0 25 -18.5 38t-49.5 13 h-49v-110z" />
<glyph unicode="&#xaf;" horiz-adv-x="1050" d="M338 1206l37 209h608l-37 -209h-608z" />
<glyph unicode="&#xb0;" horiz-adv-x="806" d="M205 1120q0 57 20.5 106.5t58.5 85.5t90 56.5t115 20.5t116.5 -20.5t91.5 -56.5t58.5 -85t20.5 -107q0 -55 -20.5 -104t-58.5 -86t-91 -57.5t-117 -20.5q-63 0 -115 20.5t-90 57.5t-58.5 86t-20.5 104zM369 1120q0 -59 31.5 -95t88.5 -36q59 0 91 36t32 95t-31.5 96 t-91.5 37q-57 0 -88.5 -37t-31.5 -96z" />
<glyph unicode="&#xb1;" horiz-adv-x="1230" d="M164 0v205h964v-205h-964zM164 655v207h362v330h240v-330h362v-207h-362v-321h-240v321h-362z" />
<glyph unicode="&#xb2;" horiz-adv-x="757" d="M156 1004q66 47 133 97t121 91q27 20 61.5 46t64 54.5t50 61t20.5 67.5q0 43 -29.5 69t-82.5 26q-51 0 -99.5 -15.5t-87.5 -38.5l-49 162q47 29 122 53.5t161 24.5q133 0 215 -67.5t82 -184.5q0 -66 -21.5 -118t-58.5 -95t-84 -79t-96 -68q-16 -12 -36 -24.5t-34 -23.5 h301l-33 -182h-592z" />
<glyph unicode="&#xb3;" horiz-adv-x="727" d="M162 911l53 154q53 -29 105.5 -43t109.5 -14t88 23.5t31 58.5q0 53 -53.5 75.5t-130.5 22.5h-62l16 168h74q35 0 71 5t65.5 17.5t48 32t18.5 49.5q0 74 -100 74q-41 0 -90.5 -11.5t-96.5 -33.5l-39 147q53 31 124 48.5t151 17.5q59 0 110.5 -13.5t89 -39t59 -64.5 t21.5 -90q0 -84 -53 -143.5t-145 -85.5q151 -54 151 -191q0 -53 -25.5 -97t-69.5 -75t-103.5 -47t-126.5 -16q-78 0 -152 18.5t-139 52.5z" />
<glyph unicode="&#xb4;" horiz-adv-x="899" d="M322 1143l204 340h324l-281 -340h-247z" />
<glyph unicode="&#xb5;" horiz-adv-x="1148" d="M-33 -422l250 1419h275l-97 -544q-4 -29 -7 -56.5t-3 -50.5q0 -68 17.5 -109.5t70.5 -41.5q37 0 74 30.5t71.5 75.5t65.5 98.5t53 100.5l88 497h275l-176 -997h-262l45 256q-29 -53 -63 -103.5t-76 -88t-91 -61t-106 -23.5q-61 0 -106.5 21.5t-78.5 59.5 q35 -49 57.5 -125.5t22.5 -164.5q0 -45 -6 -84l-18 -109h-275z" />
<glyph unicode="&#xb6;" horiz-adv-x="1208" d="M145 762q0 145 45.5 258t128 189.5t199.5 115.5t262 39h432l-149 -854q-18 -109 -45 -211t-75 -203.5t-124 -202t-192 -200.5l-133 131q86 84 147 163t102 160.5t68 171t45 193.5l121 682h-221l-156 -881q-94 0 -177 33t-144.5 91.5t-97.5 140t-36 184.5z" />
<glyph unicode="&#xb7;" horiz-adv-x="561" d="M123 489q0 80 51 131.5t129 51.5q63 0 102 -38t39 -97q0 -76 -51 -131.5t-135 -55.5q-59 0 -97 40t-38 99z" />
<glyph unicode="&#xb8;" horiz-adv-x="796" d="M66 -313q29 4 57.5 9t51 14t36.5 21.5t14 30.5q0 33 -42 45.5t-87 18.5l74 174h139l-33 -90q31 -6 62 -16.5t56.5 -27t41 -40.5t15.5 -59q0 -53 -30 -90t-81 -63t-118.5 -39t-141.5 -17z" />
<glyph unicode="&#xb9;" horiz-adv-x="612" d="M203 1573l332 108h159l-145 -821h-232l105 590l-176 -53z" />
<glyph unicode="&#xba;" horiz-adv-x="952" d="M102 334l33 192h715l-33 -192h-715zM188 950q0 94 31 174t86 137.5t133 90t172 32.5q156 0 245 -83.5t89 -219.5q0 -88 -30.5 -167.5t-86 -140t-134.5 -96.5t-177 -36q-80 0 -140.5 23.5t-102.5 64.5t-63.5 97.5t-21.5 123.5zM414 956q0 -57 26 -100t92 -43q47 0 82 23.5 t58.5 60.5t35 83t11.5 89q0 63 -33 103t-92 40q-43 0 -77 -21.5t-57.5 -56t-34.5 -80.5t-11 -98z" />
<glyph unicode="&#xbb;" horiz-adv-x="1265" d="M61 221l295 283l-209 291l191 135l311 -449l-434 -424zM602 221l295 283l-209 291l191 135l311 -449l-434 -424z" />
<glyph unicode="&#xbc;" horiz-adv-x="1716" d="M154 1255l331 109h160l-145 -821h-232l105 590l-176 -54zM315 88l924 1301l158 -113l-922 -1301zM920 336l477 485h235l-84 -469h127l-26 -149h-127l-35 -203h-217l37 203h-367zM1139 352h192l47 262z" />
<glyph unicode="&#xbd;" horiz-adv-x="1773" d="M154 1255l331 109h160l-145 -821h-232l105 590l-176 -54zM315 88l924 1301l158 -113l-922 -1301zM1030 143q66 47 133.5 97.5t120.5 91.5q27 20 61.5 45.5t64.5 54.5t50.5 61.5t20.5 67.5q0 43 -30 68.5t-83 25.5q-51 0 -99 -15t-87 -38l-49 162q47 29 121.5 53.5 t160.5 24.5q133 0 215 -67.5t82 -184.5q0 -66 -21.5 -118t-58.5 -95t-84 -79t-96 -69q-16 -12 -35.5 -24t-34.5 -23h301l-32 -182h-592z" />
<glyph unicode="&#xbe;" horiz-adv-x="1806" d="M82 594l53 154q53 -29 105.5 -43.5t109.5 -14.5t88 23.5t31 58.5q0 53 -53.5 75.5t-130.5 22.5h-62l17 168h73q35 0 71 5.5t65.5 17.5t48 31.5t18.5 50.5q0 74 -100 74q-41 0 -90.5 -11.5t-96.5 -34.5l-39 148q53 31 124 48t151 17q59 0 110.5 -13t89 -38.5t59 -64.5 t21.5 -90q0 -84 -53 -143.5t-145 -86.5q151 -53 151 -190q0 -53 -25.5 -97.5t-69.5 -75t-103.5 -47t-126.5 -16.5q-78 0 -152 18.5t-139 53.5zM406 88l923 1301l158 -113l-922 -1301zM1010 336l477 485h235l-84 -469h127l-26 -149h-127l-35 -203h-217l37 203h-367zM1229 352 h192l47 262z" />
<glyph unicode="&#xbf;" horiz-adv-x="872" d="M-16 -53q0 102 38.5 183t113.5 152.5t183.5 138t245.5 140.5l111 -203q-82 -47 -157 -92t-133 -93t-93 -99t-35 -111q0 -66 42 -98.5t110 -32.5q61 0 122.5 19.5t133.5 54.5l61 -199q-164 -94 -356 -94q-172 0 -279.5 86t-107.5 248zM416 836q0 80 51 131t129 51 q63 0 102 -38t39 -97q0 -76 -51 -131.5t-135 -55.5q-59 0 -97 40.5t-38 99.5z" />
<glyph unicode="&#xc0;" horiz-adv-x="1394" d="M-57 0l751 1364h305l277 -1364h-287l-47 285h-545l-143 -285h-311zM510 508h397l-94 606zM539 1733h311l111 -246h-226z" />
<glyph unicode="&#xc1;" horiz-adv-x="1394" d="M-57 0l751 1364h305l277 -1364h-287l-47 285h-545l-143 -285h-311zM510 508h397l-94 606zM743 1487l181 246h346l-287 -246h-240z" />
<glyph unicode="&#xc2;" horiz-adv-x="1394" d="M-57 0l751 1364h305l277 -1364h-287l-47 285h-545l-143 -285h-311zM510 508h397l-94 606zM539 1487l227 246h283l151 -246h-229l-74 123l-117 -123h-241z" />
<glyph unicode="&#xc3;" horiz-adv-x="1394" d="M-57 0l751 1364h305l277 -1364h-287l-47 285h-545l-143 -285h-311zM453 1540q29 123 89 179.5t173 56.5q47 0 93 -10.5t99 -32.5q43 -16 81 -33t71 -17q35 0 52 21.5t34 58.5l149 -61q-29 -111 -83 -162t-148 -51q-55 0 -106.5 15.5t-98.5 33.5q-45 16 -80 29.5t-61 13.5 q-47 0 -66.5 -24.5t-34.5 -67.5zM510 508h397l-94 606z" />
<glyph unicode="&#xc4;" horiz-adv-x="1394" d="M-57 0l751 1364h305l277 -1364h-287l-47 285h-545l-143 -285h-311zM510 508h397l-94 606zM539 1610q0 66 43 105.5t110 39.5q53 0 87 -32.5t34 -86.5q0 -63 -43 -106t-108 -43q-59 0 -91 36t-32 87zM958 1610q0 66 43 105.5t111 39.5q53 0 87 -32.5t34 -86.5 q0 -63 -43 -106t-109 -43q-59 0 -91 36t-32 87z" />
<glyph unicode="&#xc5;" horiz-adv-x="1394" d="M-57 0l757 1374q-25 37 -24 86q0 94 61.5 150.5t163.5 56.5q82 0 131 -44t49 -116q0 -49 -21.5 -89t-58.5 -68l275 -1350h-287l-47 285h-545l-143 -285h-311zM510 508h397l-94 606zM795 1468q0 -31 18 -49t51 -18q43 0 70 29.5t27 70.5q0 31 -20.5 48.5t-49.5 17.5 q-45 0 -70.5 -28t-25.5 -71z" />
<glyph unicode="&#xc6;" horiz-adv-x="1867" d="M-82 0l1020 1364h975l-39 -221h-610l-19 -340h537l-39 -219h-508l-16 -363h499l-39 -221h-727l17 289h-523l-206 -289h-322zM610 510h371l35 592z" />
<glyph unicode="&#xc7;" horiz-adv-x="1232" d="M88 575q0 172 51 320.5t149.5 258.5t242 172.5t329.5 62.5q109 0 210 -18.5t194 -61.5l-54 -213q-78 33 -157.5 51t-171.5 18q-117 0 -211.5 -42t-162 -117.5t-103 -182t-35.5 -235.5q0 -193 101 -291t292 -98q78 0 148.5 10t140.5 35l26 -209q-78 -31 -167 -45.5 t-187 -14.5h-39l-22 -65q31 -6 61.5 -16.5t56 -27t41 -40.5t15.5 -59q0 -53 -30 -90t-81 -63t-118.5 -39t-141.5 -17l-14 129q29 4 57.5 9t51 14t36.5 21.5t14 30.5q0 33 -42 45.5t-87 18.5l70 166q-115 23 -202 77t-145.5 130.5t-87 173t-28.5 202.5z" />
<glyph unicode="&#xc8;" horiz-adv-x="1044" d="M51 0l240 1364h794l-38 -221h-515l-59 -340h488l-37 -221h-490l-63 -361h520l-39 -221h-801zM414 1733h311l111 -246h-226z" />
<glyph unicode="&#xc9;" horiz-adv-x="1044" d="M51 0l240 1364h794l-38 -221h-515l-59 -340h488l-37 -221h-490l-63 -361h520l-39 -221h-801zM535 1487l180 246h346l-287 -246h-239z" />
<glyph unicode="&#xca;" horiz-adv-x="1044" d="M51 0l240 1364h794l-38 -221h-515l-59 -340h488l-37 -221h-490l-63 -361h520l-39 -221h-801zM371 1487l227 246h283l151 -246h-229l-74 123l-117 -123h-241z" />
<glyph unicode="&#xcb;" horiz-adv-x="1044" d="M51 0l240 1364h794l-38 -221h-515l-59 -340h488l-37 -221h-490l-63 -361h520l-39 -221h-801zM381 1610q0 66 43 105.5t111 39.5q53 0 86.5 -32.5t33.5 -86.5q0 -63 -43 -106t-108 -43q-59 0 -91 36t-32 87zM801 1610q0 66 43 105.5t110 39.5q53 0 87 -32.5t34 -86.5 q0 -63 -43 -106t-108 -43q-59 0 -91 36t-32 87z" />
<glyph unicode="&#xcc;" horiz-adv-x="587" d="M61 0l240 1364h281l-240 -1364h-281zM143 1733h312l110 -246h-225z" />
<glyph unicode="&#xcd;" horiz-adv-x="587" d="M61 0l240 1364h281l-240 -1364h-281zM340 1487l180 246h346l-286 -246h-240z" />
<glyph unicode="&#xce;" horiz-adv-x="587" d="M61 0l240 1364h281l-240 -1364h-281zM135 1487l227 246h283l152 -246h-230l-73 123l-117 -123h-242z" />
<glyph unicode="&#xcf;" horiz-adv-x="587" d="M61 0l240 1364h281l-240 -1364h-281zM135 1610q0 66 43 105.5t111 39.5q53 0 87 -32.5t34 -86.5q0 -63 -43 -106t-109 -43q-59 0 -91 36t-32 87zM555 1610q0 66 43 105.5t111 39.5q53 0 86.5 -32.5t33.5 -86.5q0 -63 -43 -106t-108 -43q-59 0 -91 36t-32 87z" />
<glyph unicode="&#xd0;" horiz-adv-x="1464" d="M82 571l39 220h153l103 573h391q150 0 272.5 -40t210.5 -115.5t136.5 -185.5t48.5 -247q0 -184 -65.5 -327.5t-181.5 -244t-275.5 -152.5t-348.5 -52h-430l101 571h-154zM455 223h131q135 0 241.5 40t179 111.5t111.5 171t39 222.5q0 186 -113.5 279.5t-298.5 93.5h-129 l-61 -350h358l-39 -220h-358z" />
<glyph unicode="&#xd1;" horiz-adv-x="1458" d="M51 0l240 1364h276l459 -913l160 913h276l-239 -1364h-277l-457 913l-161 -913h-277zM481 1540q29 123 89.5 179.5t172.5 56.5q47 0 93.5 -10.5t99.5 -32.5q43 -16 81 -33t70 -17q35 0 52.5 21.5t34.5 58.5l149 -61q-29 -111 -83 -162t-148 -51q-55 0 -106.5 15.5 t-98.5 33.5q-45 16 -80 29.5t-62 13.5q-47 0 -66.5 -24.5t-33.5 -67.5z" />
<glyph unicode="&#xd2;" horiz-adv-x="1482" d="M90 549q0 178 54.5 331.5t154.5 266.5t241.5 177.5t313.5 64.5q147 0 258 -45.5t185.5 -123t112.5 -183t38 -226.5q0 -160 -52.5 -310.5t-150.5 -267t-240.5 -187.5t-320.5 -71q-145 0 -257 47.5t-186.5 126t-112.5 182t-38 218.5zM371 565q0 -76 19.5 -142.5t59 -116.5 t102 -78.5t148.5 -28.5q113 0 200 52t146.5 137t90 192.5t30.5 216.5q0 76 -20.5 142.5t-61.5 116.5t-103 79.5t-146 29.5q-113 0 -199 -53t-145.5 -139t-90 -193.5t-30.5 -214.5zM563 1733h311l111 -246h-225z" />
<glyph unicode="&#xd3;" horiz-adv-x="1482" d="M90 549q0 178 54.5 331.5t154.5 266.5t241.5 177.5t313.5 64.5q147 0 258 -45.5t185.5 -123t112.5 -183t38 -226.5q0 -160 -52.5 -310.5t-150.5 -267t-240.5 -187.5t-320.5 -71q-145 0 -257 47.5t-186.5 126t-112.5 182t-38 218.5zM371 565q0 -76 19.5 -142.5t59 -116.5 t102 -78.5t148.5 -28.5q113 0 200 52t146.5 137t90 192.5t30.5 216.5q0 76 -20.5 142.5t-61.5 116.5t-103 79.5t-146 29.5q-113 0 -199 -53t-145.5 -139t-90 -193.5t-30.5 -214.5zM741 1487l181 246h346l-287 -246h-240z" />
<glyph unicode="&#xd4;" horiz-adv-x="1482" d="M90 549q0 178 54.5 331.5t154.5 266.5t241.5 177.5t313.5 64.5q147 0 258 -45.5t185.5 -123t112.5 -183t38 -226.5q0 -160 -52.5 -310.5t-150.5 -267t-240.5 -187.5t-320.5 -71q-145 0 -257 47.5t-186.5 126t-112.5 182t-38 218.5zM371 565q0 -76 19.5 -142.5t59 -116.5 t102 -78.5t148.5 -28.5q113 0 200 52t146.5 137t90 192.5t30.5 216.5q0 76 -20.5 142.5t-61.5 116.5t-103 79.5t-146 29.5q-113 0 -199 -53t-145.5 -139t-90 -193.5t-30.5 -214.5zM578 1487l227 246h282l152 -246h-229l-74 123l-117 -123h-241z" />
<glyph unicode="&#xd5;" horiz-adv-x="1482" d="M90 549q0 178 54.5 331.5t154.5 266.5t241.5 177.5t313.5 64.5q147 0 258 -45.5t185.5 -123t112.5 -183t38 -226.5q0 -160 -52.5 -310.5t-150.5 -267t-240.5 -187.5t-320.5 -71q-145 0 -257 47.5t-186.5 126t-112.5 182t-38 218.5zM371 565q0 -76 19.5 -142.5t59 -116.5 t102 -78.5t148.5 -28.5q113 0 200 52t146.5 137t90 192.5t30.5 216.5q0 76 -20.5 142.5t-61.5 116.5t-103 79.5t-146 29.5q-113 0 -199 -53t-145.5 -139t-90 -193.5t-30.5 -214.5zM489 1540q29 123 89.5 179.5t173.5 56.5q47 0 93 -10.5t99 -32.5q43 -16 81 -33t71 -17 q35 0 52 21.5t34 58.5l149 -61q-29 -111 -83 -162t-148 -51q-55 0 -106.5 15.5t-98.5 33.5q-45 16 -80 29.5t-61 13.5q-47 0 -66.5 -24.5t-34.5 -67.5z" />
<glyph unicode="&#xd6;" horiz-adv-x="1482" d="M90 549q0 178 54.5 331.5t154.5 266.5t241.5 177.5t313.5 64.5q147 0 258 -45.5t185.5 -123t112.5 -183t38 -226.5q0 -160 -52.5 -310.5t-150.5 -267t-240.5 -187.5t-320.5 -71q-145 0 -257 47.5t-186.5 126t-112.5 182t-38 218.5zM371 565q0 -76 19.5 -142.5t59 -116.5 t102 -78.5t148.5 -28.5q113 0 200 52t146.5 137t90 192.5t30.5 216.5q0 76 -20.5 142.5t-61.5 116.5t-103 79.5t-146 29.5q-113 0 -199 -53t-145.5 -139t-90 -193.5t-30.5 -214.5zM573 1610q0 66 43 105.5t111 39.5q53 0 87 -32.5t34 -86.5q0 -63 -43 -106t-109 -43 q-59 0 -91 36t-32 87zM993 1610q0 66 43 105.5t111 39.5q53 0 87 -32.5t34 -86.5q0 -63 -43 -106t-109 -43q-59 0 -91 36t-32 87z" />
<glyph unicode="&#xd7;" horiz-adv-x="1255" d="M195 344l317 318l-317 317l155 158l320 -320l317 320l156 -158l-318 -317l318 -318l-156 -158l-317 320l-320 -320z" />
<glyph unicode="&#xd8;" horiz-adv-x="1492" d="M96 549q0 178 54.5 331.5t155 266.5t241.5 177.5t313 64.5q96 0 177 -20.5t147 -55.5l143 182l125 -96l-143 -185q72 -78 108.5 -181t36.5 -222q0 -160 -52 -310.5t-150.5 -267t-241 -187.5t-320.5 -71q-90 0 -164.5 17.5t-138.5 50.5l-135 -174l-123 98l131 166 q-82 80 -123 187.5t-41 228.5zM377 565q0 -61 11 -116.5t38 -102.5l602 768q-78 51 -186 51q-113 0 -199 -53t-145.5 -139t-90 -194t-30.5 -214zM539 236q68 -37 168 -37q113 0 199.5 52t146 137t90.5 192.5t31 216.5q0 106 -41 194z" />
<glyph unicode="&#xd9;" horiz-adv-x="1372" d="M129 424q0 25 2 49.5t6 48.5l150 842h280l-149 -852q-4 -16 -6 -39.5t-2 -44.5q0 -96 53 -162.5t180 -66.5q117 0 199 75.5t106 212.5l154 877h280l-153 -875q-20 -117 -69.5 -212t-126.5 -161.5t-182.5 -103.5t-240.5 -37q-113 0 -202 34t-151 93.5t-95 141.5t-33 180z M567 1733h312l110 -246h-225z" />
<glyph unicode="&#xda;" horiz-adv-x="1372" d="M129 424q0 25 2 49.5t6 48.5l150 842h280l-149 -852q-4 -16 -6 -39.5t-2 -44.5q0 -96 53 -162.5t180 -66.5q117 0 199 75.5t106 212.5l154 877h280l-153 -875q-20 -117 -69.5 -212t-126.5 -161.5t-182.5 -103.5t-240.5 -37q-113 0 -202 34t-151 93.5t-95 141.5t-33 180z M684 1487l180 246h346l-286 -246h-240z" />
<glyph unicode="&#xdb;" horiz-adv-x="1372" d="M129 424q0 25 2 49.5t6 48.5l150 842h280l-149 -852q-4 -16 -6 -39.5t-2 -44.5q0 -96 53 -162.5t180 -66.5q117 0 199 75.5t106 212.5l154 877h280l-153 -875q-20 -117 -69.5 -212t-126.5 -161.5t-182.5 -103.5t-240.5 -37q-113 0 -202 34t-151 93.5t-95 141.5t-33 180z M520 1487l228 246h282l152 -246h-230l-73 123l-117 -123h-242z" />
<glyph unicode="&#xdc;" horiz-adv-x="1372" d="M129 424q0 25 2 49.5t6 48.5l150 842h280l-149 -852q-4 -16 -6 -39.5t-2 -44.5q0 -96 53 -162.5t180 -66.5q117 0 199 75.5t106 212.5l154 877h280l-153 -875q-20 -117 -69.5 -212t-126.5 -161.5t-182.5 -103.5t-240.5 -37q-113 0 -202 34t-151 93.5t-95 141.5t-33 180z M532 1610q0 66 43 105.5t111 39.5q53 0 87 -32.5t34 -86.5q0 -63 -43 -106t-109 -43q-59 0 -91 36t-32 87zM952 1610q0 66 43 105.5t111 39.5q53 0 87 -32.5t34 -86.5q0 -63 -43 -106t-109 -43q-59 0 -91 36t-32 87z" />
<glyph unicode="&#xdd;" horiz-adv-x="1095" d="M127 1364h295l170 -614l362 614h316l-586 -889l-84 -475h-281l91 510zM557 1487l180 246h346l-286 -246h-240z" />
<glyph unicode="&#xde;" horiz-adv-x="1105" d="M51 0l240 1364h280l-45 -250h140q102 0 184 -27.5t138 -79t87 -121t31 -151.5q0 -127 -52.5 -220t-139.5 -153.5t-201.5 -90t-237.5 -29.5h-100l-43 -242h-281zM414 459h71q70 0 132.5 15t109.5 47t73.5 80t26.5 114q0 86 -55 134t-143 48h-137z" />
<glyph unicode="&#xdf;" horiz-adv-x="1220" d="M-371 -406l39 203q29 -10 64 -17t71 -7q72 0 116 27.5t71.5 78.5t43 123t32.5 160l139 792q25 139 76 237.5t124.5 160t166 89t198.5 27.5q74 0 141.5 -20.5t117.5 -58t80 -93t30 -122.5q0 -86 -39 -144.5t-99 -124.5q-43 -47 -77.5 -88t-34.5 -88q0 -33 20.5 -60.5 t59.5 -64.5q27 -27 57.5 -58.5t57 -68.5t44 -81t17.5 -95q0 -70 -26.5 -128t-76 -101t-120 -67.5t-158.5 -24.5q-72 0 -146.5 14t-138.5 43l49 188q96 -45 211 -45q70 0 105 28t35 75q0 41 -29 70.5t-70 70.5q-80 78 -123 142.5t-43 135.5q0 88 44 149.5t102 125.5 q37 41 71.5 81t34.5 91q0 53 -37.5 78.5t-95.5 25.5q-104 0 -166.5 -81.5t-89.5 -229.5l-139 -788q-25 -137 -57.5 -247t-88 -187.5t-142.5 -119.5t-218 -42q-53 0 -107.5 10t-95.5 26z" />
<glyph unicode="&#xe0;" horiz-adv-x="1122" d="M61 346q0 137 38 259t113 214t185.5 145.5t253.5 53.5q106 0 214 -23.5t196 -64.5l-164 -930h-262l47 279q-27 -53 -62.5 -106.5t-79.5 -96.5t-96.5 -69.5t-109.5 -26.5q-76 0 -128 29.5t-84 80.5t-46.5 116.5t-14.5 139.5zM336 352q0 -29 4 -56.5t13 -50t25.5 -36.5 t43.5 -14q43 0 86 37.5t84 96t75.5 131t61.5 142.5l33 189q-53 20 -119 20q-74 0 -130 -40t-96 -104.5t-60.5 -146.5t-20.5 -168zM389 1483h297l92 -340h-225z" />
<glyph unicode="&#xe1;" horiz-adv-x="1122" d="M61 346q0 137 38 259t113 214t185.5 145.5t253.5 53.5q106 0 214 -23.5t196 -64.5l-164 -930h-262l47 279q-27 -53 -62.5 -106.5t-79.5 -96.5t-96.5 -69.5t-109.5 -26.5q-76 0 -128 29.5t-84 80.5t-46.5 116.5t-14.5 139.5zM336 352q0 -29 4 -56.5t13 -50t25.5 -36.5 t43.5 -14q43 0 86 37.5t84 96t75.5 131t61.5 142.5l33 189q-53 20 -119 20q-74 0 -130 -40t-96 -104.5t-60.5 -146.5t-20.5 -168zM547 1143l205 340h323l-280 -340h-248z" />
<glyph unicode="&#xe2;" horiz-adv-x="1122" d="M61 346q0 137 38 259t113 214t185.5 145.5t253.5 53.5q106 0 214 -23.5t196 -64.5l-164 -930h-262l47 279q-27 -53 -62.5 -106.5t-79.5 -96.5t-96.5 -69.5t-109.5 -26.5q-76 0 -128 29.5t-84 80.5t-46.5 116.5t-14.5 139.5zM336 352q0 -29 4 -56.5t13 -50t25.5 -36.5 t43.5 -14q43 0 86 37.5t84 96t75.5 131t61.5 142.5l33 189q-53 20 -119 20q-74 0 -130 -40t-96 -104.5t-60.5 -146.5t-20.5 -168zM348 1143l279 340h258l170 -340h-234l-82 188l-141 -188h-250z" />
<glyph unicode="&#xe3;" horiz-adv-x="1122" d="M61 346q0 137 38 259t113 214t185.5 145.5t253.5 53.5q106 0 214 -23.5t196 -64.5l-164 -930h-262l47 279q-27 -53 -62.5 -106.5t-79.5 -96.5t-96.5 -69.5t-109.5 -26.5q-76 0 -128 29.5t-84 80.5t-46.5 116.5t-14.5 139.5zM326 1219q41 121 93 175t154 54q47 0 84 -12.5 t80 -34.5q35 -16 64.5 -30.5t62.5 -14.5q37 0 54.5 24.5t33.5 59.5l146 -70q-16 -47 -36 -87t-46.5 -69.5t-64.5 -46t-91 -16.5t-94 17.5t-76 33.5q-31 14 -59.5 27.5t-57.5 13.5q-41 0 -63.5 -25.5t-44.5 -68.5zM336 352q0 -29 4 -56.5t13 -50t25.5 -36.5t43.5 -14 q43 0 86 37.5t84 96t75.5 131t61.5 142.5l33 189q-53 20 -119 20q-74 0 -130 -40t-96 -104.5t-60.5 -146.5t-20.5 -168z" />
<glyph unicode="&#xe4;" horiz-adv-x="1122" d="M61 346q0 137 38 259t113 214t185.5 145.5t253.5 53.5q106 0 214 -23.5t196 -64.5l-164 -930h-262l47 279q-27 -53 -62.5 -106.5t-79.5 -96.5t-96.5 -69.5t-109.5 -26.5q-76 0 -128 29.5t-84 80.5t-46.5 116.5t-14.5 139.5zM336 352q0 -29 4 -56.5t13 -50t25.5 -36.5 t43.5 -14q43 0 86 37.5t84 96t75.5 131t61.5 142.5l33 189q-53 20 -119 20q-74 0 -130 -40t-96 -104.5t-60.5 -146.5t-20.5 -168zM371 1290q0 70 43 112t114 42q57 0 91 -36t34 -89q0 -66 -43 -110t-112 -44q-59 0 -93 36t-34 89zM776 1290q0 70 43 112t115 42q57 0 91 -36 t34 -89q0 -66 -43 -110t-113 -44q-59 0 -93 36t-34 89z" />
<glyph unicode="&#xe5;" horiz-adv-x="1122" d="M61 346q0 137 38 259t113 214t185.5 145.5t253.5 53.5q106 0 214 -23.5t196 -64.5l-164 -930h-262l47 279q-27 -53 -62.5 -106.5t-79.5 -96.5t-96.5 -69.5t-109.5 -26.5q-76 0 -128 29.5t-84 80.5t-46.5 116.5t-14.5 139.5zM336 352q0 -29 4 -56.5t13 -50t25.5 -36.5 t43.5 -14q43 0 86 37.5t84 96t75.5 131t61.5 142.5l33 189q-53 20 -119 20q-74 0 -130 -40t-96 -104.5t-60.5 -146.5t-20.5 -168zM537 1303q0 94 61 150t164 56q82 0 131 -43.5t49 -115.5q0 -43 -17.5 -81t-48 -65.5t-72.5 -44t-89 -16.5q-84 0 -131 46t-47 114zM655 1311 q0 -31 18.5 -49.5t51.5 -18.5q43 0 69.5 30t26.5 70q0 31 -20 48.5t-49 17.5q-45 0 -71 -27.5t-26 -70.5z" />
<glyph unicode="&#xe6;" horiz-adv-x="1488" d="M16 242q0 84 27 142t75 95t115.5 55.5t147.5 24.5q59 4 123.5 7t120.5 5q4 16 6 34t2 32q0 90 -56.5 128t-144.5 38q-74 0 -134 -16.5t-114 -43.5l-53 193q59 35 152.5 58.5t193.5 23.5q106 0 188.5 -36t133.5 -124q66 86 162 123t200 37q131 0 215 -68.5t84 -181.5 q0 -98 -52 -168t-138 -114t-194.5 -65.5t-219.5 -25.5q-2 -10 -3 -22.5t-1 -22.5q0 -74 43 -123t129 -49q72 0 140.5 22.5t133.5 61.5l54 -180q-66 -41 -157 -71.5t-194 -30.5q-113 0 -194.5 41.5t-118.5 101.5q-72 -63 -172 -103t-213 -40q-74 0 -128 21.5t-90 57 t-52.5 82.5t-16.5 101zM279 260q0 -45 28.5 -67.5t73.5 -22.5q72 0 133 27.5t104 68.5q-14 57 -14 127q-35 -2 -84 -5t-96 -7q-72 -8 -108.5 -36t-36.5 -85zM889 578q66 2 125 15t104 34.5t72 51.5t27 66q0 37 -25 57.5t-66 20.5q-43 0 -81.5 -19.5t-70.5 -52t-54.5 -77.5 t-30.5 -96z" />
<glyph unicode="&#xe7;" horiz-adv-x="907" d="M63 406q0 127 37 238.5t109 194.5t177.5 131t240.5 48q172 0 295 -78l-62 -201q-47 27 -106.5 45.5t-118.5 18.5q-76 0 -132.5 -34t-93 -89t-54 -127t-17.5 -150q0 -86 41 -148t145 -62q55 0 113.5 14t110.5 41l47 -189q-61 -35 -133 -55t-158 -24l-25 -70 q31 -6 61.5 -16.5t56.5 -27t41 -40.5t15 -59q0 -53 -29.5 -90t-80.5 -63t-119 -39t-141 -17l-15 129q29 4 57.5 9t51 14t37 21.5t14.5 30.5q0 33 -42 45.5t-87 18.5l70 166q-156 33 -231 144.5t-75 269.5z" />
<glyph unicode="&#xe8;" d="M63 358q0 135 39 256t113 210t178.5 141.5t233.5 52.5q72 0 128 -19.5t94 -53.5t58.5 -80t20.5 -97q0 -102 -52.5 -172t-136.5 -115t-191.5 -66.5t-217.5 -23.5q-2 -14 -3 -27.5t-1 -25.5q0 -66 31.5 -112t121.5 -46q68 0 141.5 19.5t147.5 62.5l51 -180 q-78 -47 -175 -74.5t-202 -27.5q-98 0 -169.5 28.5t-117.5 79.5t-69 121t-23 149zM326 1483h297l92 -340h-226zM362 580q57 2 115 12t103 30.5t72.5 51.5t27.5 74q0 75 -92 75q-41 0 -77 -20.5t-65.5 -54t-50 -77.5t-33.5 -91z" />
<glyph unicode="&#xe9;" d="M63 358q0 135 39 256t113 210t178.5 141.5t233.5 52.5q72 0 128 -19.5t94 -53.5t58.5 -80t20.5 -97q0 -102 -52.5 -172t-136.5 -115t-191.5 -66.5t-217.5 -23.5q-2 -14 -3 -27.5t-1 -25.5q0 -66 31.5 -112t121.5 -46q68 0 141.5 19.5t147.5 62.5l51 -180 q-78 -47 -175 -74.5t-202 -27.5q-98 0 -169.5 28.5t-117.5 79.5t-69 121t-23 149zM362 580q57 2 115 12t103 30.5t72.5 51.5t27.5 74q0 75 -92 75q-41 0 -77 -20.5t-65.5 -54t-50 -77.5t-33.5 -91zM504 1143l205 340h323l-280 -340h-248z" />
<glyph unicode="&#xea;" d="M63 358q0 135 39 256t113 210t178.5 141.5t233.5 52.5q72 0 128 -19.5t94 -53.5t58.5 -80t20.5 -97q0 -102 -52.5 -172t-136.5 -115t-191.5 -66.5t-217.5 -23.5q-2 -14 -3 -27.5t-1 -25.5q0 -66 31.5 -112t121.5 -46q68 0 141.5 19.5t147.5 62.5l51 -180 q-78 -47 -175 -74.5t-202 -27.5q-98 0 -169.5 28.5t-117.5 79.5t-69 121t-23 149zM272 1143l279 340h258l170 -340h-234l-81 188l-142 -188h-250zM362 580q57 2 115 12t103 30.5t72.5 51.5t27.5 74q0 75 -92 75q-41 0 -77 -20.5t-65.5 -54t-50 -77.5t-33.5 -91z" />
<glyph unicode="&#xeb;" d="M63 358q0 135 39 256t113 210t178.5 141.5t233.5 52.5q72 0 128 -19.5t94 -53.5t58.5 -80t20.5 -97q0 -102 -52.5 -172t-136.5 -115t-191.5 -66.5t-217.5 -23.5q-2 -14 -3 -27.5t-1 -25.5q0 -66 31.5 -112t121.5 -46q68 0 141.5 19.5t147.5 62.5l51 -180 q-78 -47 -175 -74.5t-202 -27.5q-98 0 -169.5 28.5t-117.5 79.5t-69 121t-23 149zM328 1290q0 70 43 112t114 42q57 0 91 -36t34 -89q0 -66 -43 -110t-112 -44q-59 0 -93 36t-34 89zM362 580q57 2 115 12t103 30.5t72.5 51.5t27.5 74q0 75 -92 75q-41 0 -77 -20.5t-65.5 -54 t-50 -77.5t-33.5 -91zM733 1290q0 70 43 112t115 42q57 0 91 -36t34 -89q0 -66 -43 -110t-113 -44q-59 0 -93 36t-34 89z" />
<glyph unicode="&#xec;" horiz-adv-x="540" d="M41 0l176 997h275l-177 -997h-274zM80 1483h297l92 -340h-225z" />
<glyph unicode="&#xed;" horiz-adv-x="540" d="M41 0l176 997h275l-177 -997h-274zM250 1143l205 340h323l-280 -340h-248z" />
<glyph unicode="&#xee;" horiz-adv-x="540" d="M23 1143l278 340h258l170 -340h-233l-82 188l-142 -188h-249zM41 0l176 997h275l-177 -997h-274z" />
<glyph unicode="&#xef;" horiz-adv-x="540" d="M41 0l176 997h275l-177 -997h-274zM55 1290q0 70 43 112t115 42q57 0 91 -36t34 -89q0 -66 -43 -110t-113 -44q-59 0 -93 36t-34 89zM461 1290q0 70 43 112t114 42q57 0 91 -36t34 -89q0 -66 -43 -110t-112 -44q-59 0 -93 36t-34 89z" />
<glyph unicode="&#xf0;" horiz-adv-x="1107" d="M51 391q0 117 37 215.5t103.5 169t162 110.5t211.5 40q84 0 146.5 -17.5t117.5 -54.5q-20 86 -63 147.5t-104 104.5l-152 -121l-86 105l111 88q-51 25 -107.5 41t-122.5 28l53 219q102 -10 196.5 -38.5t178.5 -75.5l162 133l84 -105l-129 -108q113 -88 177.5 -221 t64.5 -297q0 -35 -4.5 -72t-10.5 -76q-20 -117 -67 -228.5t-123 -200.5t-181.5 -143t-244.5 -54q-88 0 -163 29.5t-130 83.5t-86 130t-31 168zM315 395q0 -39 9.5 -76.5t30 -68.5t54 -49.5t80.5 -18.5q72 0 125.5 38t91 97.5t62.5 133t37 147.5l10 57q-41 29 -94 45.5 t-117 16.5q-137 0 -213 -84t-76 -238z" />
<glyph unicode="&#xf1;" horiz-adv-x="1150" d="M41 0l176 997h264l-32 -184q49 86 127.5 145.5t195.5 59.5q68 0 119 -26.5t85 -73t51 -111t17 -137.5q0 -29 -3 -65t-9 -70l-94 -535h-274l96 547q4 29 7 55.5t3 48.5q0 68 -23.5 110t-76.5 42q-37 0 -72 -19.5t-67.5 -52.5t-62.5 -75t-52 -87l-101 -569h-274zM307 1219 q41 121 93.5 175t154.5 54q47 0 84 -12.5t80 -34.5q35 -16 64.5 -30.5t62.5 -14.5q37 0 54.5 24.5t33.5 59.5l145 -70q-16 -47 -35.5 -87t-46 -69.5t-64.5 -46t-91 -16.5t-94 17.5t-76 33.5q-31 14 -59.5 27.5t-57.5 13.5q-41 0 -63.5 -25.5t-45.5 -68.5z" />
<glyph unicode="&#xf2;" horiz-adv-x="1112" d="M63 393q0 135 39 250t112 198t177.5 130t235.5 47q102 0 181 -32t133 -88t83 -132t29 -162q0 -117 -38 -229.5t-111 -200.5t-180.5 -141t-246.5 -53q-98 0 -175 31.5t-130 87t-81 131t-28 163.5zM336 399q0 -88 40 -149.5t128 -61.5q70 0 122 37t85.5 95.5t51 130 t17.5 139.5q0 41 -10 81t-31.5 70.5t-55.5 49t-81 18.5q-66 0 -115 -36t-82.5 -94t-51 -132t-17.5 -148zM340 1483h297l92 -340h-225z" />
<glyph unicode="&#xf3;" horiz-adv-x="1112" d="M63 393q0 135 39 250t112 198t177.5 130t235.5 47q102 0 181 -32t133 -88t83 -132t29 -162q0 -117 -38 -229.5t-111 -200.5t-180.5 -141t-246.5 -53q-98 0 -175 31.5t-130 87t-81 131t-28 163.5zM336 399q0 -88 40 -149.5t128 -61.5q70 0 122 37t85.5 95.5t51 130 t17.5 139.5q0 41 -10 81t-31.5 70.5t-55.5 49t-81 18.5q-66 0 -115 -36t-82.5 -94t-51 -132t-17.5 -148zM516 1143l205 340h323l-280 -340h-248z" />
<glyph unicode="&#xf4;" horiz-adv-x="1112" d="M63 393q0 135 39 250t112 198t177.5 130t235.5 47q102 0 181 -32t133 -88t83 -132t29 -162q0 -117 -38 -229.5t-111 -200.5t-180.5 -141t-246.5 -53q-98 0 -175 31.5t-130 87t-81 131t-28 163.5zM315 1143l279 340h258l170 -340h-234l-81 188l-142 -188h-250zM336 399 q0 -88 40 -149.5t128 -61.5q70 0 122 37t85.5 95.5t51 130t17.5 139.5q0 41 -10 81t-31.5 70.5t-55.5 49t-81 18.5q-66 0 -115 -36t-82.5 -94t-51 -132t-17.5 -148z" />
<glyph unicode="&#xf5;" horiz-adv-x="1112" d="M63 393q0 135 39 250t112 198t177.5 130t235.5 47q102 0 181 -32t133 -88t83 -132t29 -162q0 -117 -38 -229.5t-111 -200.5t-180.5 -141t-246.5 -53q-98 0 -175 31.5t-130 87t-81 131t-28 163.5zM297 1219q41 121 93 175t155 54q47 0 84 -12.5t80 -34.5 q35 -16 64.5 -30.5t62.5 -14.5q37 0 54 24.5t34 59.5l145 -70q-16 -47 -35.5 -87t-46 -69.5t-65 -46t-91.5 -16.5t-94 17.5t-75 33.5q-31 14 -60 27.5t-57 13.5q-41 0 -63.5 -25.5t-45.5 -68.5zM336 399q0 -88 40 -149.5t128 -61.5q70 0 122 37t85.5 95.5t51 130t17.5 139.5 q0 41 -10 81t-31.5 70.5t-55.5 49t-81 18.5q-66 0 -115 -36t-82.5 -94t-51 -132t-17.5 -148z" />
<glyph unicode="&#xf6;" horiz-adv-x="1112" d="M63 393q0 135 39 250t112 198t177.5 130t235.5 47q102 0 181 -32t133 -88t83 -132t29 -162q0 -117 -38 -229.5t-111 -200.5t-180.5 -141t-246.5 -53q-98 0 -175 31.5t-130 87t-81 131t-28 163.5zM336 399q0 -88 40 -149.5t128 -61.5q70 0 122 37t85.5 95.5t51 130 t17.5 139.5q0 41 -10 81t-31.5 70.5t-55.5 49t-81 18.5q-66 0 -115 -36t-82.5 -94t-51 -132t-17.5 -148zM360 1290q0 70 43 112t115 42q57 0 91 -36t34 -89q0 -66 -43 -110t-113 -44q-59 0 -93 36t-34 89zM766 1290q0 70 43 112t115 42q57 0 91 -36t34 -89q0 -66 -43 -110 t-113 -44q-59 0 -93 36t-34 89z" />
<glyph unicode="&#xf7;" horiz-adv-x="1239" d="M174 557v209h963v-209h-963zM502 264q0 66 44 109t109 43q66 0 109 -43t43 -109t-43 -107.5t-109 -41.5t-109.5 42t-43.5 107zM502 1057q0 66 44 108.5t109 42.5q66 0 109 -42.5t43 -108.5t-43 -108t-109 -42t-109.5 42t-43.5 108z" />
<glyph unicode="&#xf8;" horiz-adv-x="1124" d="M63 -55l117 149q-113 113 -112 299q0 135 38.5 250t111.5 198t177.5 130t235.5 47q68 0 125 -14.5t104 -40.5l129 161l90 -71l-127 -162q51 -55 78 -129t27 -158q0 -117 -38 -229.5t-110.5 -200.5t-180 -141t-247.5 -53q-115 0 -209 45l-118 -152zM340 399q0 -43 10 -88 l363 461q-43 37 -107 37q-66 0 -115 -36t-82.5 -94t-51 -132t-17.5 -148zM420 211q35 -23 88 -23q70 0 122 37t86 95.5t51 130t17 139.5q0 35 -10 76z" />
<glyph unicode="&#xf9;" horiz-adv-x="1128" d="M88 328q0 29 4 64.5t10 70.5l95 534h274l-96 -544q-4 -29 -7 -56.5t-3 -50.5q0 -68 17 -109.5t71 -41.5q37 0 73.5 30.5t71.5 75.5t65.5 98.5t53.5 100.5l88 497h274l-176 -997h-262l45 256q-29 -53 -62.5 -103.5t-75.5 -88t-91 -61t-107 -23.5q-80 0 -130 29.5 t-79.5 78.5t-41 111.5t-11.5 128.5zM401 1483h297l93 -340h-226z" />
<glyph unicode="&#xfa;" horiz-adv-x="1128" d="M88 328q0 29 4 64.5t10 70.5l95 534h274l-96 -544q-4 -29 -7 -56.5t-3 -50.5q0 -68 17 -109.5t71 -41.5q37 0 73.5 30.5t71.5 75.5t65.5 98.5t53.5 100.5l88 497h274l-176 -997h-262l45 256q-29 -53 -62.5 -103.5t-75.5 -88t-91 -61t-107 -23.5q-80 0 -130 29.5 t-79.5 78.5t-41 111.5t-11.5 128.5zM516 1143l205 340h323l-280 -340h-248z" />
<glyph unicode="&#xfb;" horiz-adv-x="1128" d="M88 328q0 29 4 64.5t10 70.5l95 534h274l-96 -544q-4 -29 -7 -56.5t-3 -50.5q0 -68 17 -109.5t71 -41.5q37 0 73.5 30.5t71.5 75.5t65.5 98.5t53.5 100.5l88 497h274l-176 -997h-262l45 256q-29 -53 -62.5 -103.5t-75.5 -88t-91 -61t-107 -23.5q-80 0 -130 29.5 t-79.5 78.5t-41 111.5t-11.5 128.5zM324 1143l278 340h258l170 -340h-233l-82 188l-142 -188h-249z" />
<glyph unicode="&#xfc;" horiz-adv-x="1128" d="M88 328q0 29 4 64.5t10 70.5l95 534h274l-96 -544q-4 -29 -7 -56.5t-3 -50.5q0 -68 17 -109.5t71 -41.5q37 0 73.5 30.5t71.5 75.5t65.5 98.5t53.5 100.5l88 497h274l-176 -997h-262l45 256q-29 -53 -62.5 -103.5t-75.5 -88t-91 -61t-107 -23.5q-80 0 -130 29.5 t-79.5 78.5t-41 111.5t-11.5 128.5zM358 1290q0 70 43 112t115 42q57 0 91 -36t34 -89q0 -66 -43 -110t-113 -44q-59 0 -93 36t-34 89zM764 1290q0 70 43 112t115 42q57 0 91 -36t34 -89q0 -66 -43 -110t-113 -44q-59 0 -93 36t-34 89z" />
<glyph unicode="&#xfd;" d="M-78 -252q98 57 201.5 128t189.5 161q-39 266 -101 512t-136 448h272q27 -80 53.5 -171t48 -188t38 -195.5t26.5 -190.5q90 178 135 361.5t66 383.5h266q-56 -544 -326 -923q-106 -147 -260.5 -280.5t-353.5 -235.5zM385 1143l205 340h323l-280 -340h-248z" />
<glyph unicode="&#xfe;" horiz-adv-x="1138" d="M-33 -422l328 1868h274l-112 -645q27 43 59.5 83t72.5 69.5t88 47t105 17.5q78 0 134.5 -32t92 -85t53 -120.5t17.5 -141.5q0 -131 -34.5 -251t-105.5 -210t-179.5 -144t-253.5 -54q-47 0 -101.5 9t-87.5 23l-75 -434h-275zM352 207q23 -10 58.5 -15.5t70.5 -5.5 q88 0 149.5 38t100.5 99.5t56.5 140.5t17.5 163q0 31 -5 62.5t-17.5 57t-33 41t-51.5 15.5q-37 0 -75.5 -23.5t-76.5 -61.5t-73 -86t-63 -100z" />
<glyph unicode="&#xff;" d="M-78 -252q98 57 201.5 128t189.5 161q-39 266 -101 512t-136 448h272q27 -80 53.5 -171t48 -188t38 -195.5t26.5 -190.5q90 178 135 361.5t66 383.5h266q-56 -544 -326 -923q-106 -147 -260.5 -280.5t-353.5 -235.5zM229 1290q0 70 43 112t115 42q57 0 91 -36t34 -89 q0 -66 -43 -110t-113 -44q-59 0 -93 36t-34 89zM635 1290q0 70 43 112t115 42q57 0 91 -36t34 -89q0 -66 -43.5 -110t-112.5 -44q-59 0 -93 36t-34 89z" />
<glyph unicode="&#x152;" horiz-adv-x="1945" d="M90 559q0 184 55.5 337t158 262.5t250.5 170t337 60.5q86 0 159.5 -7.5t143.5 -17.5h793l-39 -221h-514l-60 -340h490l-39 -221h-488l-65 -361h520l-39 -221h-801q-55 -10 -119.5 -17.5t-123.5 -7.5q-150 0 -264.5 45.5t-193.5 123t-120 185t-41 230.5zM371 571 q0 -180 98 -277t291 -97q61 0 123.5 7t107.5 21l164 918q-45 10 -113.5 16t-138.5 6q-133 0 -232.5 -45t-166 -125t-100 -188.5t-33.5 -235.5z" />
<glyph unicode="&#x153;" horiz-adv-x="1652" d="M63 393q0 131 37 245t109 199t176 133t238 48q113 0 195.5 -50t129.5 -116q141 166 377 166q72 0 128 -19.5t94 -53.5t58.5 -80t20.5 -97q0 -102 -52 -172t-136 -115t-191.5 -66.5t-218.5 -23.5q-6 -41 -3 -79t19.5 -66.5t48 -47t85.5 -18.5q68 0 141.5 19.5t146.5 62.5 l52 -180q-78 -47 -175.5 -74.5t-201.5 -27.5q-111 0 -193 48t-114 115q-63 -72 -154.5 -117.5t-206.5 -45.5q-96 0 -173 31.5t-129 87t-80 131t-28 163.5zM336 399q0 -88 40 -149.5t128 -61.5q70 0 122 37t85.5 95.5t51 130t17.5 139.5q0 41 -10 81t-31.5 70.5t-55.5 49 t-81 18.5q-66 0 -115 -36t-82.5 -94t-51 -132t-17.5 -148zM1061 580q57 2 114.5 12t102.5 30.5t72.5 51.5t27.5 74q0 75 -92 75q-41 0 -76.5 -20.5t-65.5 -54t-50.5 -77.5t-32.5 -91z" />
<glyph unicode="&#x178;" horiz-adv-x="1095" d="M127 1364h295l170 -614l362 614h316l-586 -889l-84 -475h-281l91 510zM381 1610q0 66 43 105.5t111 39.5q53 0 86.5 -32.5t33.5 -86.5q0 -63 -43 -106t-108 -43q-59 0 -91 36t-32 87zM801 1610q0 66 43 105.5t110 39.5q53 0 87 -32.5t34 -86.5q0 -63 -43 -106t-108 -43 q-59 0 -91 36t-32 87z" />
<glyph unicode="&#x2c6;" horiz-adv-x="1136" d="M285 1143l278 340h258l170 -340h-233l-82 188l-141 -188h-250z" />
<glyph unicode="&#x2dc;" horiz-adv-x="1095" d="M295 1217q41 121 93 175t155 54q47 0 84 -12.5t80 -34.5q35 -16 64.5 -30.5t62.5 -14.5q37 0 54 24.5t34 59.5l145 -70q-16 -47 -35.5 -87t-46.5 -69.5t-65 -46t-91 -16.5t-94 17.5t-76 33.5q-31 14 -59.5 27.5t-56.5 13.5q-41 0 -63.5 -25.5t-45.5 -68.5z" />
<glyph unicode="&#x2000;" horiz-adv-x="888" />
<glyph unicode="&#x2001;" horiz-adv-x="1776" />
<glyph unicode="&#x2002;" horiz-adv-x="888" />
<glyph unicode="&#x2003;" horiz-adv-x="1776" />
<glyph unicode="&#x2004;" horiz-adv-x="592" />
<glyph unicode="&#x2005;" horiz-adv-x="444" />
<glyph unicode="&#x2006;" horiz-adv-x="296" />
<glyph unicode="&#x2007;" horiz-adv-x="296" />
<glyph unicode="&#x2008;" horiz-adv-x="222" />
<glyph unicode="&#x2009;" horiz-adv-x="355" />
<glyph unicode="&#x200a;" horiz-adv-x="98" />
<glyph unicode="&#x2010;" horiz-adv-x="765" d="M119 422l37 219h538l-39 -219h-536z" />
<glyph unicode="&#x2011;" horiz-adv-x="765" d="M119 422l37 219h538l-39 -219h-536z" />
<glyph unicode="&#x2012;" horiz-adv-x="765" d="M119 422l37 219h538l-39 -219h-536z" />
<glyph unicode="&#x2013;" horiz-adv-x="1089" d="M133 543l39 219h846l-39 -219h-846z" />
<glyph unicode="&#x2014;" horiz-adv-x="1624" d="M117 422l39 219h1396l-39 -219h-1396z" />
<glyph unicode="&#x2018;" horiz-adv-x="540" d="M154 891q55 324 288 555l164 -113q-156 -205 -192 -475z" />
<glyph unicode="&#x2019;" horiz-adv-x="540" d="M164 971q156 205 192 475l260 -33q-55 -324 -288 -555z" />
<glyph unicode="&#x201a;" horiz-adv-x="571" d="M-55 -203q156 205 192 475l260 -32q-55 -324 -288 -555z" />
<glyph unicode="&#x201c;" horiz-adv-x="1001" d="M154 891q55 324 288 555l164 -113q-156 -205 -192 -475zM614 891q55 324 289 555l164 -113q-156 -205 -193 -475z" />
<glyph unicode="&#x201d;" horiz-adv-x="1001" d="M154 971q156 205 192 475l260 -33q-55 -324 -289 -555zM614 971q156 205 193 475l260 -33q-55 -324 -289 -555z" />
<glyph unicode="&#x201e;" horiz-adv-x="1032" d="M-55 -203q156 205 192 475l260 -32q-55 -324 -288 -555zM406 -203q156 205 192 475l260 -32q-55 -324 -289 -555z" />
<glyph unicode="&#x2022;" horiz-adv-x="864" d="M158 580q0 61 21.5 115.5t60.5 94t93 63.5t118 24q63 0 118.5 -24t94 -63.5t61.5 -94t23 -115.5q0 -59 -23 -112.5t-61.5 -93.5t-94 -63.5t-118.5 -23.5t-117.5 23.5t-93.5 63.5t-60.5 93.5t-21.5 112.5z" />
<glyph unicode="&#x2026;" horiz-adv-x="1683" d="M72 123q0 80 51 131t129 51q63 0 102 -38t39 -97q0 -76 -51 -131t-135 -55q-59 0 -97 40t-38 99zM633 123q0 80 51 131t129 51q63 0 102 -38t39 -97q0 -76 -51 -131t-135 -55q-59 0 -97 40t-38 99zM1194 123q0 80 51 131t129 51q63 0 102.5 -38t39.5 -97 q0 -76 -51.5 -131t-135.5 -55q-59 0 -97 40t-38 99z" />
<glyph unicode="&#x202f;" horiz-adv-x="355" />
<glyph unicode="&#x2039;" horiz-adv-x="724" d="M70 506l434 424l153 -164l-295 -283l209 -290l-190 -136z" />
<glyph unicode="&#x203a;" horiz-adv-x="724" d="M61 221l295 283l-209 291l191 135l311 -449l-434 -424z" />
<glyph unicode="&#x205f;" horiz-adv-x="444" />
<glyph unicode="&#x20ac;" horiz-adv-x="1169" d="M41 428l31 172h157q6 80 25 164h-154l31 172h168q33 100 87 183t131 142.5t175 93.5t221 34q170 0 291 -56l-51 -196q-100 41 -225 41q-137 0 -221 -68t-125 -174h473l-29 -172h-500q-8 -41 -13 -82t-9 -82h493l-30 -172h-465q2 -111 62.5 -176.5t195.5 -65.5 q57 0 116.5 10.5t106.5 26.5l27 -192q-55 -25 -133 -40.5t-160 -15.5q-117 0 -206 35t-150.5 96.5t-94.5 143.5t-39 178h-186z" />
<glyph unicode="&#x2122;" horiz-adv-x="1478" d="M174 1247v117h502v-117h-180v-532h-142v532h-180zM758 715l49 649h137l184 -401l185 401h137l49 -649h-137l-29 401l-129 -289h-151l-129 289l-29 -401h-137z" />
<glyph unicode="&#x25fc;" horiz-adv-x="993" d="M0 0v993h993v-993h-993z" />
</font>
</defs>
</svg>
